<?xml version="1.0" standalone="no"?>
<!DOCTYPE svg PUBLIC "-//W3C//DTD SVG 20010904//EN"
 "http://www.w3.org/TR/2001/REC-SVG-20010904/DTD/svg10.dtd">
<svg version="1.0" xmlns="http://www.w3.org/2000/svg"
 width="500.000000pt" height="500.000000pt" viewBox="0 0 500.000000 500.000000"
 preserveAspectRatio="xMidYMid meet">
<metadata>
Created by potrace 1.14, written by Peter Selinger 2001-2017
</metadata>
<g transform="translate(0.000000,500.000000) scale(0.100000,-0.100000)"
fill="#000000" stroke="none">
<path d="M2659 4656 c-2 -2 -58 -6 -124 -10 -123 -6 -148 -8 -225 -21 -42 -7
-44 -6 -25 9 50 39 -46 2 -127 -50 -37 -24 -79 -46 -93 -50 -14 -3 -55 -26
-91 -50 -36 -24 -72 -44 -80 -44 -8 0 -14 -6 -14 -13 0 -7 -15 -28 -33 -47
-18 -19 -45 -52 -61 -73 -15 -21 -38 -43 -51 -49 -13 -6 -29 -21 -36 -34 -7
-13 -18 -24 -26 -24 -7 0 -17 -10 -22 -23 -5 -12 -28 -40 -52 -62 -71 -64
-123 -156 -169 -300 -13 -38 -27 -78 -31 -87 -5 -10 -18 -59 -30 -110 -16 -71
-22 -135 -24 -273 -4 -186 4 -262 35 -330 37 -83 36 -100 -4 -70 -27 20 -79
19 -105 -2 -43 -36 -49 -142 -18 -298 9 -44 26 -127 37 -185 14 -67 27 -110
38 -118 15 -11 15 -14 2 -22 -21 -13 -18 -90 6 -131 30 -52 99 -99 142 -99 55
0 62 8 56 65 -3 28 -5 83 -4 124 0 42 -5 79 -11 87 -6 8 -9 14 -6 14 15 0 -17
59 -34 63 -17 5 -18 3 -8 -9 14 -18 24 -94 11 -94 -4 0 -16 27 -26 60 -20 65
-17 123 8 163 14 23 20 122 19 347 0 114 2 136 16 142 14 6 14 7 -1 7 -14 1
-16 5 -8 25 5 13 7 26 4 29 -3 2 -6 14 -9 25 -2 15 0 19 11 15 14 -5 20 12 7
20 -5 2 -2 2 6 0 10 -2 12 7 9 42 -3 24 -1 42 4 39 4 -3 8 -12 8 -19 0 -8 12
-18 26 -21 21 -6 25 -11 22 -34 -5 -30 16 -36 33 -9 7 11 9 9 9 -8 0 -13 -8
-24 -21 -28 -17 -6 -19 -12 -13 -38 4 -18 8 -56 9 -86 1 -42 -2 -55 -17 -64
-21 -13 -25 -57 -5 -57 7 0 18 5 25 12 9 9 11 3 9 -29 -1 -23 -5 -39 -9 -37
-4 3 -6 -11 -4 -31 1 -19 -1 -35 -5 -35 -4 0 -7 -15 -6 -32 1 -18 -2 -64 -7
-103 -13 -120 -14 -135 -4 -135 5 0 6 -10 3 -21 -4 -13 -3 -19 2 -16 6 4 7
-15 1 -50 -5 -30 -6 -58 -3 -61 3 -3 5 2 5 10 0 9 7 18 15 22 22 8 47 -4 41
-20 -3 -8 1 -14 9 -14 8 0 15 5 15 12 0 6 2 9 5 7 2 -3 -2 -27 -9 -55 -14 -52
-9 -81 18 -103 18 -15 22 -51 5 -51 -6 0 -8 7 -5 16 3 8 2 12 -4 9 -6 -3 -10
-42 -10 -85 0 -45 -5 -82 -11 -85 -6 -4 -8 -13 -5 -21 3 -9 0 -11 -11 -7 -12
5 -15 2 -10 -10 4 -11 -1 -25 -13 -37 -24 -24 -25 -36 -4 -48 13 -7 14 -13 5
-31 -7 -11 -18 -21 -26 -21 -8 0 -15 -5 -15 -11 0 -7 9 -9 21 -6 15 4 19 2 15
-9 -3 -7 -2 -13 2 -12 14 4 52 -27 52 -42 0 -12 -2 -13 -9 -1 -5 7 -14 12 -21
9 -9 -3 -9 -8 3 -20 12 -12 13 -18 4 -28 -10 -10 -7 -10 13 0 l25 13 -25 -28
c-14 -16 -20 -25 -14 -22 7 4 11 -4 10 -23 -1 -17 -4 -30 -8 -30 -5 0 -8 -7
-8 -15 0 -8 6 -15 13 -15 8 0 11 -17 9 -60 -2 -33 1 -75 7 -92 8 -23 8 -35 0
-45 -7 -7 -9 -16 -5 -20 3 -3 6 -2 6 4 0 6 7 14 16 17 8 3 12 2 9 -3 -3 -5 -1
-12 5 -16 5 -3 15 -16 21 -28 9 -17 9 -19 0 -11 -7 6 -24 9 -39 6 l-27 -6 24
-6 c13 -3 25 -13 27 -23 1 -9 -2 -15 -7 -11 -5 3 -7 10 -4 15 4 5 1 9 -4 9
-11 0 -15 -13 -12 -37 1 -7 -3 -13 -9 -13 -6 0 -8 -11 -5 -27 6 -27 6 -28 -11
-8 l-17 20 8 -20 c12 -35 14 -56 4 -50 -8 6 -13 -20 -10 -56 1 -9 -4 -19 -12
-22 -10 -4 -13 -20 -11 -55 2 -40 -1 -50 -12 -45 -10 4 -12 0 -8 -11 5 -12 2
-15 -10 -10 -19 7 -20 0 -5 -24 9 -14 7 -26 -7 -53 l-18 -34 -7 25 c-4 14 -7
20 -8 14 -1 -7 -8 -15 -17 -18 -11 -4 -15 -2 -11 8 4 10 1 13 -8 9 -10 -3 -13
-13 -9 -29 5 -19 3 -23 -10 -18 -9 3 -16 15 -16 26 0 13 -4 17 -12 12 -9 -5
-9 -2 1 9 12 15 11 17 -2 17 -23 0 -12 22 23 45 17 11 30 24 30 28 0 23 -115
-23 -176 -69 -17 -13 -44 -24 -61 -24 -48 0 -151 -40 -323 -125 -41 -20 -155
-68 -254 -106 -98 -38 -215 -87 -260 -109 -44 -21 -128 -58 -186 -80 -58 -23
-135 -55 -172 -72 l-68 -31 0 -199 0 -198 1708 0 c1428 1 1712 3 1728 14 14
10 19 24 18 51 -2 27 2 35 11 31 16 -6 17 35 0 47 -6 4 -5 10 5 17 13 9 13 11
0 19 -8 6 -11 13 -8 16 4 4 2 18 -3 32 -8 22 -7 24 8 19 15 -6 15 -5 -2 14
-18 20 -18 20 5 20 18 0 20 3 11 14 -10 12 -8 14 11 10 13 -3 5 4 -17 15 -24
11 -33 20 -22 20 10 1 20 8 23 16 4 8 10 12 15 9 5 -3 6 2 3 10 -3 8 -13 16
-22 18 -11 2 -13 6 -6 10 6 4 23 0 38 -7 28 -15 28 -15 21 12 -5 22 -4 25 8
15 18 -15 30 -3 16 15 -9 10 -8 13 5 13 10 0 14 5 11 10 -4 6 -11 8 -16 5 -5
-4 -9 -2 -9 4 0 12 28 41 40 41 5 0 7 7 4 15 -4 11 0 15 17 15 28 0 17 12 -15
16 -19 2 -23 -2 -20 -22 1 -14 -3 -24 -11 -24 -7 0 -26 -15 -43 -34 -17 -19
-33 -32 -37 -28 -3 3 -3 -2 1 -11 4 -10 13 -16 21 -13 8 3 11 1 8 -5 -4 -5
-14 -7 -24 -4 -10 3 -30 -7 -51 -26 -31 -26 -32 -30 -12 -25 15 3 22 0 19 -7
-5 -16 -58 -11 -69 5 -5 9 -8 9 -8 1 0 -6 7 -19 16 -28 15 -15 15 -18 -6 -41
-13 -13 -19 -24 -14 -24 5 0 0 -7 -10 -15 -11 -8 -17 -18 -13 -21 4 -4 2 -13
-4 -21 -9 -10 -7 -19 5 -39 l17 -25 -28 18 c-27 17 -28 17 -13 -1 14 -18 13
-19 -8 -13 -22 5 -23 4 -8 -12 9 -10 16 -24 16 -31 0 -9 -5 -7 -14 6 -14 18
-15 18 -12 1 1 -10 9 -23 17 -29 11 -8 11 -9 -3 -5 -21 7 -32 -21 -16 -41 11
-13 10 -15 -6 -9 -12 5 -23 1 -32 -10 -12 -16 -15 -16 -23 -3 -8 11 -6 17 7
22 16 6 16 7 -1 7 -10 1 -20 -6 -23 -14 -4 -8 -13 -15 -21 -15 -13 0 -13 3 -3
15 9 10 9 15 1 15 -6 0 -11 5 -11 11 0 6 9 8 20 4 16 -5 20 -2 20 14 0 12 -5
20 -11 18 -6 -1 -13 4 -15 11 -1 7 0 8 2 3 8 -15 53 9 48 24 -3 7 2 19 10 28
8 8 12 17 9 21 -3 3 -12 -2 -20 -12 -13 -15 -13 -15 -4 5 13 26 60 65 71 58 5
-3 11 -1 15 5 3 5 -1 10 -9 10 -9 0 -16 9 -16 20 0 12 -5 17 -14 14 -8 -3 -16
3 -19 15 -4 16 4 26 31 43 21 12 39 26 40 30 2 4 9 8 15 8 7 0 27 13 46 29 19
17 38 28 41 26 4 -2 13 7 20 21 8 14 20 22 27 19 8 -3 11 0 8 6 -4 5 7 23 24
40 17 16 31 33 31 38 0 5 6 16 14 24 27 26 76 137 76 170 0 18 -7 42 -15 53
-14 18 -15 17 -6 -7 11 -29 4 -69 -11 -69 -5 0 -6 -5 -2 -12 4 -7 3 -8 -5 -4
-6 4 -9 11 -6 16 3 5 3 20 -1 34 -5 22 -8 23 -31 11 -14 -7 -32 -11 -39 -8 -8
3 -14 0 -14 -7 0 -7 -7 -10 -15 -6 -10 3 -17 -3 -21 -18 -7 -29 -44 -41 -61
-21 -9 10 -9 11 -1 5 20 -16 31 -11 17 8 -11 14 -11 15 1 4 8 -6 19 -12 24
-12 6 1 0 10 -14 22 -14 12 -18 19 -8 15 18 -6 34 18 17 28 -5 4 -6 12 -2 18
10 16 13 68 6 87 -4 8 -7 19 -7 25 -1 11 -69 45 -76 38 -3 -2 3 -9 14 -15 10
-5 24 -25 32 -43 17 -42 0 -116 -42 -176 -38 -55 -138 -145 -185 -166 -21 -10
-37 -23 -34 -30 2 -7 -2 -10 -11 -6 -10 4 -13 0 -8 -13 4 -14 3 -16 -4 -5 -6
9 -17 11 -33 5 -13 -4 -29 -9 -36 -10 -34 -6 -149 -48 -154 -57 -4 -5 -9 -5
-13 2 -4 6 -11 9 -15 7 -19 -12 -266 -42 -313 -38 -10 1 -25 1 -33 1 -82 -2
-155 4 -155 13 0 4 -7 5 -16 1 -13 -5 -13 -7 -2 -14 10 -7 9 -9 -4 -9 -9 0
-18 6 -21 13 -3 9 -7 9 -20 -2 -9 -7 -27 -11 -39 -8 -13 4 -57 9 -98 13 -41 3
-82 9 -90 14 -8 4 -21 6 -28 4 -7 -1 -8 0 -2 3 5 2 10 12 10 21 0 14 -2 14 -9
3 -8 -12 -12 -12 -26 2 -19 19 -35 22 -35 6 0 -5 -5 -7 -10 -4 -6 4 -4 12 6
22 11 11 12 19 5 26 -14 14 -14 28 0 24 6 -1 14 5 16 13 4 13 3 13 -6 0 -6 -9
-11 -10 -11 -3 0 8 -9 9 -32 2 -17 -5 -34 -7 -36 -4 -2 2 7 7 22 11 30 7 34
30 9 51 -13 10 -15 16 -5 19 17 8 15 24 -3 24 -8 0 -15 5 -15 10 0 6 7 10 15
10 9 0 12 6 8 18 -6 15 -4 15 15 -2 19 -16 22 -17 22 -3 0 8 -6 18 -12 20 -7
3 -3 6 9 6 12 1 25 -3 28 -9 3 -5 0 -10 -7 -11 -7 0 -3 -5 10 -11 12 -6 22
-20 22 -30 0 -18 1 -18 16 -3 12 12 19 13 30 4 18 -15 18 -33 1 -26 -8 3 -14
-1 -14 -7 0 -10 9 -10 44 0 24 7 48 16 53 19 17 11 11 -7 -7 -20 -15 -11 -10
-13 32 -10 35 2 58 -2 75 -14 47 -33 54 -36 47 -18 -3 10 -2 17 3 17 6 0 10
-4 10 -10 0 -5 9 -10 21 -10 11 0 17 4 14 10 -4 6 5 10 19 10 l26 0 -21 21
c-26 26 -15 39 43 54 44 11 61 31 31 38 -10 2 2 3 27 0 33 -3 41 -1 30 6 -11
8 -11 11 -2 11 7 0 10 5 6 11 -4 8 0 9 15 4 31 -9 26 7 -9 30 -16 11 -30 24
-30 28 0 14 34 21 38 8 3 -8 9 -5 19 8 8 12 22 21 31 21 23 1 54 25 44 35 -4
4 4 4 17 0 19 -6 23 -4 18 8 -4 11 0 13 15 9 14 -3 19 -1 14 6 -5 8 2 12 18
12 14 0 26 4 26 10 0 5 6 7 14 4 8 -3 17 0 22 7 4 8 3 10 -4 5 -7 -4 -12 -2
-12 4 0 6 10 8 26 4 19 -5 25 -3 20 4 -4 7 7 18 26 28 52 26 69 45 62 68 -3
12 -2 16 3 10 4 -7 21 -12 36 -12 15 0 26 3 23 6 -3 2 8 17 24 32 21 20 26 30
18 38 -7 7 -9 14 -6 17 3 3 12 -1 21 -9 13 -14 16 -14 21 0 3 9 4 19 1 23 -2
4 -5 24 -7 44 -1 20 -5 34 -9 31 -4 -2 -6 -15 -5 -29 2 -13 -3 -26 -9 -29 -9
-3 -12 3 -11 19 2 18 -3 24 -21 28 -22 4 -24 2 -19 -19 7 -25 -8 -34 -17 -11
-4 9 -6 9 -6 0 -1 -6 4 -15 9 -18 6 -3 10 -11 10 -16 0 -5 -10 0 -22 11 -21
19 -24 20 -35 4 -7 -9 -19 -14 -28 -11 -18 7 -20 -14 -3 -31 6 -6 9 -14 6 -18
-4 -3 -16 4 -27 15 -22 22 -28 12 -11 -20 12 -22 3 -24 -35 -7 -14 6 -25 16
-25 22 0 6 -8 -1 -17 -14 l-17 -24 -7 24 -7 25 -7 -22 c-8 -26 -20 -29 -32 -9
-4 8 -21 18 -37 22 -24 6 -28 4 -23 -9 3 -9 -3 -23 -15 -34 -20 -18 -21 -18
-12 7 4 14 8 35 9 48 0 12 3 22 7 22 3 0 4 9 1 20 l-5 20 -18 -20 c-19 -21
-32 -26 -27 -10 1 6 -9 16 -23 23 -14 8 -24 19 -23 25 2 6 -4 9 -12 6 -8 -4
-15 -9 -15 -13 0 -4 -20 -8 -44 -8 -34 -1 -43 2 -39 13 3 8 0 14 -6 14 -6 0
-11 -5 -11 -11 0 -5 -5 -7 -10 -4 -6 4 -8 11 -5 16 4 5 -1 12 -9 15 -22 9 -20
21 7 36 21 12 34 48 17 48 -5 0 -6 10 -3 22 3 17 2 19 -5 10 -7 -11 -10 -9
-15 7 -4 16 0 21 13 21 29 0 50 11 50 26 0 7 6 11 14 8 7 -3 31 2 52 12 22 9
46 16 54 15 9 -1 11 1 4 6 -15 11 -12 53 4 53 16 0 7 36 -14 58 -8 7 -14 20
-14 28 0 8 -4 12 -10 9 -6 -3 -10 -1 -10 6 0 7 -8 5 -21 -7 -22 -19 -22 -19
-14 6 7 22 6 23 -9 11 -13 -11 -19 -11 -32 0 -8 7 -13 21 -11 31 3 10 2 20 -3
23 -4 3 -11 16 -14 29 -5 19 0 32 19 50 29 29 40 32 51 14 4 -7 3 -8 -4 -4 -7
4 -12 2 -12 -3 0 -6 9 -11 20 -11 12 0 17 -5 14 -14 -3 -7 2 -16 11 -20 19 -7
46 5 66 31 13 17 13 17 -5 3 -18 -14 -19 -14 -8 6 10 18 7 23 -24 38 -28 13
-34 21 -29 34 4 9 9 24 12 33 4 15 62 39 96 39 9 0 18 -13 23 -32 7 -32 7 -32
17 -10 11 25 48 38 74 26 10 -4 20 -8 23 -8 29 -6 33 -46 5 -46 -7 0 -18 -6
-24 -14 -9 -10 -6 -13 16 -14 127 -3 139 -5 161 -23 14 -11 20 -23 16 -30 -4
-8 -3 -9 4 -5 7 4 12 1 12 -6 0 -10 2 -11 8 0 5 7 8 28 7 47 0 19 3 35 7 35 4
0 8 -6 8 -12 0 -9 4 -8 10 2 13 20 13 43 -1 34 -8 -4 -9 1 -4 16 5 15 4 20 -4
16 -17 -11 -25 22 -13 49 7 15 8 27 2 30 -5 3 -6 15 -1 28 12 30 -13 76 -42
77 -8 0 13 -41 28 -53 6 -5 1 -6 -10 -3 -16 5 -21 1 -21 -13 0 -10 5 -17 11
-15 6 3 10 -14 11 -41 0 -25 0 -45 -2 -45 -1 0 -14 4 -28 9 -17 7 -26 7 -29
-2 -3 -9 -9 -9 -28 0 -13 7 -55 17 -93 23 -38 6 -78 16 -88 21 -11 6 -32 12
-46 15 -15 2 -36 5 -47 7 -11 3 -28 -2 -39 -9 -18 -12 -46 -9 -46 5 0 5 16 16
35 27 24 12 35 26 35 40 0 12 6 24 13 27 15 5 -10 57 -28 57 -15 0 -35 43 -35
74 0 12 -9 32 -20 44 -11 12 -20 24 -20 27 0 3 -12 17 -27 30 -22 18 -28 32
-28 62 0 21 3 41 8 44 12 9 16 109 4 109 -6 0 -1 10 11 23 21 22 23 41 9 64
-4 7 -2 24 6 39 10 19 11 40 6 78 -5 28 -11 74 -14 101 -3 28 -12 71 -20 97
-7 25 -11 49 -8 51 10 10 -20 75 -33 70 -7 -2 -15 5 -19 16 -3 12 -10 21 -15
21 -5 0 -13 12 -19 28 -8 20 -10 21 -7 5 2 -13 0 -23 -5 -23 -5 0 -9 4 -9 10
0 19 -73 60 -97 54 -13 -4 -30 0 -39 7 -10 9 -18 9 -22 2 -4 -6 -18 -13 -32
-17 -14 -4 -20 -4 -13 1 6 4 -29 8 -77 8 -48 0 -86 3 -84 6 2 3 -12 6 -31 7
-19 1 -35 -3 -35 -8 0 -5 -7 -7 -15 -4 -10 4 -14 1 -12 -7 2 -8 2 -11 0 -6 -3
4 -20 7 -38 7 -18 0 -35 6 -38 13 -2 6 -7 9 -11 6 -4 -4 0 -14 9 -23 26 -25
-1 -19 -29 8 -28 25 -36 47 -11 26 12 -10 19 -10 28 -1 9 9 9 14 -3 22 -13 9
-12 10 2 5 12 -3 15 -1 11 10 -3 7 -9 14 -14 14 -5 0 -9 5 -9 11 0 6 10 8 23
5 12 -3 16 -3 10 0 -7 3 -13 15 -13 25 0 11 4 18 8 15 4 -2 14 0 22 5 13 8 11
12 -7 26 -22 14 -34 41 -14 28 5 -3 11 3 14 12 3 15 6 14 14 -7 10 -22 12 -23
18 -8 4 10 11 16 15 13 4 -3 17 10 28 28 10 18 34 40 53 49 27 14 30 18 16 23
-9 4 -17 11 -17 17 0 5 4 7 9 3 5 -3 12 -1 16 5 3 5 -2 10 -12 10 -14 0 -15 2
-4 9 7 5 11 13 7 19 -3 6 0 13 6 16 10 5 10 7 1 12 -10 4 -10 9 1 20 11 10 12
22 6 44 -5 17 -9 34 -9 37 0 4 -5 9 -12 12 -8 2 -10 -2 -6 -12 3 -9 0 -20 -7
-26 -10 -9 -17 -5 -30 14 -19 29 -14 47 11 38 12 -5 15 -2 10 10 -3 9 -2 17 3
17 6 0 10 4 10 10 0 5 -7 7 -15 4 -23 -9 -18 14 6 27 16 8 18 13 9 19 -7 5
-14 20 -16 36 -4 41 -19 50 -48 30 -37 -24 -43 -20 -10 6 16 12 35 30 42 40
15 20 38 25 25 6 -11 -19 -10 -41 5 -56 15 -17 42 0 42 27 0 14 2 14 10 1 8
-13 10 -13 10 2 0 9 3 18 8 21 4 2 2 3 -3 2 -14 -3 -35 21 -27 31 4 4 -1 4
-10 1 -23 -8 -48 1 -48 18 0 16 25 26 46 18 13 -5 15 -2 10 15 -5 14 -1 24 11
31 15 9 13 10 -12 5 -21 -4 -26 -3 -16 4 7 5 10 15 7 21 -11 18 9 13 38 -10
14 -11 26 -16 26 -10 0 6 4 11 9 11 5 0 7 -9 4 -20 -3 -11 0 -20 6 -20 6 0 11
8 11 19 0 33 110 48 147 19 7 -6 13 -4 15 4 4 11 8 11 20 0 9 -7 19 -9 22 -4
3 5 18 7 32 4 19 -3 31 1 40 13 10 14 17 15 27 7 9 -8 24 -9 43 -3 16 4 39 7
52 6 13 -1 25 2 28 7 3 4 9 6 14 3 5 -3 20 -1 35 5 14 5 46 11 71 12 29 1 48
7 54 17 5 9 10 11 10 4 0 -8 9 -9 30 -3 17 5 30 6 30 2 0 -10 72 -8 89 2 11 7
13 5 8 -7 -4 -11 -2 -14 9 -10 7 3 14 1 14 -5 0 -11 38 -4 58 11 8 6 12 6 12
-3 0 -7 15 -11 43 -9 24 2 48 -1 55 -5 13 -8 74 2 82 13 10 14 196 83 237 88
48 6 97 -14 145 -59 46 -42 78 -58 78 -38 0 5 -3 9 -7 7 -5 -1 -10 3 -13 8 -7
16 -34 45 -41 45 -4 0 -28 12 -54 26 -32 19 -43 29 -34 35 13 7 42 -5 86 -37
16 -11 23 -12 29 -3 4 8 3 9 -5 5 -8 -5 -16 3 -24 23 -6 17 -19 33 -28 36 -10
3 -19 12 -22 19 -9 23 49 13 79 -14 15 -14 24 -19 20 -12 -4 7 -1 12 9 12 14
0 14 3 -2 25 -10 13 -23 25 -29 25 -6 0 -19 9 -29 20 -12 13 -25 18 -38 14
-13 -4 -17 -2 -13 5 4 6 3 11 -2 11 -6 0 -8 9 -5 20 3 12 14 20 27 20 21 1 21
1 2 15 -11 8 -34 15 -50 15 -29 1 -66 19 -66 33 0 4 12 13 28 22 l27 16 -29
-4 c-35 -6 -56 1 -56 17 0 12 -37 30 -82 42 -16 3 -28 12 -28 19 0 20 -46 45
-95 52 -25 3 -48 10 -51 14 -3 5 -14 9 -24 9 -10 0 -26 7 -35 17 -13 12 -19
13 -25 4 -5 -10 -9 -9 -14 4 -3 9 -11 13 -17 10 -6 -4 -13 2 -16 13 -3 13 -11
18 -19 15 -8 -3 -14 -1 -14 4 0 6 -20 11 -45 11 -24 1 -56 7 -70 12 -26 10
-97 14 -106 6z m446 -144 c-5 -4 -10 -13 -10 -21 0 -8 -7 -17 -15 -19 -13 -5
-13 -3 -1 12 12 15 12 16 -5 10 -18 -5 -18 -5 0 10 11 9 25 16 30 16 7 0 8 -3
1 -8z m5 -82 c-8 -5 -19 -10 -25 -10 -5 0 -3 5 5 10 8 5 20 10 25 10 6 0 3 -5
-5 -10z m233 -163 l32 -28 -35 24 c-32 21 -54 32 -115 52 -16 5 -17 8 -5 15
17 10 73 -18 123 -63z m-113 -15 c-8 -3 -2 -10 16 -18 23 -11 24 -12 4 -7 -14
4 -37 7 -52 7 -15 -1 -25 3 -22 8 9 13 47 27 59 20 5 -3 3 -8 -5 -10z m-63 2
c-3 -4 -21 -8 -39 -10 -24 -3 -29 -1 -18 6 16 11 67 14 57 4z m274 -31 c13
-15 12 -15 -8 -4 -24 12 -29 21 -14 21 5 0 15 -7 22 -17z m-49 -21 c10 -10 6
-10 -20 -1 -17 6 -32 13 -32 15 0 8 41 -3 52 -14z m-22 -34 c10 -6 7 -7 -10
-2 -14 3 -32 11 -40 16 -10 6 -7 7 10 2 14 -3 32 -11 40 -16z m-205 2 c-33 -4
-69 -10 -80 -14 -11 -3 -6 0 10 8 17 8 53 15 80 14 l50 -1 -60 -7z m108 3 c-7
-2 -21 -2 -30 0 -10 3 -4 5 12 5 17 0 24 -2 18 -5z m-86 -29 c-3 -3 -12 -4
-19 -1 -8 3 -5 6 6 6 11 1 17 -2 13 -5z m103 2 c0 -3 -31 -11 -69 -20 -38 -9
-77 -18 -87 -22 -18 -5 -18 -5 -1 6 33 21 157 49 157 36z m-1397 -154 c-6 -14
-25 -12 -30 4 -2 5 5 10 16 10 11 0 17 -5 14 -14z m-50 -9 c-4 -11 -3 -14 5
-9 7 4 12 2 12 -3 0 -6 -4 -11 -9 -11 -14 0 -23 18 -16 30 10 16 15 12 8 -7z
m64 -25 c-3 -8 -6 -5 -6 6 -1 11 2 17 5 13 3 -3 4 -12 1 -19z m-57 -18 c0 -5
-7 -10 -15 -10 -8 0 -15 5 -15 10 0 6 7 10 15 10 8 0 15 -4 15 -10z m80 -10
c0 -5 -4 -10 -10 -10 -5 0 -10 5 -10 10 0 6 5 10 10 10 6 0 10 -4 10 -10z
m-110 -20 c8 -16 6 -21 -11 -31 -17 -9 -19 -13 -8 -20 21 -13 27 -11 35 13 5
18 8 19 15 5 5 -8 7 -21 4 -29 -6 -15 -46 -43 -44 -31 4 23 -3 25 -15 4 -9
-17 -24 -25 -45 -27 -26 -2 -29 0 -17 12 8 7 16 19 19 26 2 8 8 9 13 4 5 -5 4
-11 -3 -13 -7 -3 -13 -9 -13 -14 0 -4 7 -6 15 -3 16 7 21 44 6 44 -5 0 -17 8
-27 17 -16 16 -16 16 -10 -5 6 -16 3 -22 -8 -22 -9 0 -16 -4 -16 -10 0 -5 -10
-10 -22 -10 -22 0 -21 1 7 25 17 13 27 24 23 25 -5 0 1 9 12 20 11 11 30 19
42 17 14 -1 22 3 21 11 -4 19 15 14 27 -8z m71 -14 c-7 -8 -9 -21 -5 -28 5
-10 4 -10 -6 -1 -8 7 -10 22 -6 39 5 20 10 24 18 16 8 -8 8 -15 -1 -26z m57
-67 c-7 -5 -19 -9 -26 -9 -10 0 -10 3 0 14 7 7 19 11 26 8 11 -4 11 -6 0 -13z
m-248 -33 c0 -18 -19 -31 -28 -21 -4 4 -1 10 6 12 6 3 10 9 6 14 -3 5 0 9 5 9
6 0 11 -6 11 -14z m235 4 c3 -5 1 -10 -4 -10 -6 0 -11 5 -11 10 0 6 2 10 4 10
3 0 8 -4 11 -10z m-215 -45 c0 -8 -7 -15 -16 -15 -14 0 -14 3 -4 15 7 8 14 15
16 15 2 0 4 -7 4 -15z m161 -2 c13 -17 13 -17 -6 -3 -11 8 -22 16 -24 17 -2 2
0 3 6 3 6 0 17 -8 24 -17z m-21 -23 c0 -5 -4 -10 -10 -10 -5 0 -10 5 -10 10 0
6 5 10 10 10 6 0 10 -4 10 -10z m-46 -14 c22 -11 24 -15 11 -20 -21 -8 -30 -8
-22 1 4 3 -1 12 -11 19 -22 18 -11 18 22 0z m-124 -46 c0 -5 -4 -10 -10 -10
-5 0 -10 5 -10 10 0 6 5 10 10 10 6 0 10 -4 10 -10z m143 -5 c-3 -9 -8 -14
-10 -11 -3 3 -2 9 2 15 9 16 15 13 8 -4z m-67 -223 c-15 -15 -15 -15 -4 10 7
15 15 23 17 17 2 -6 -4 -18 -13 -27z m114 -42 c8 -5 11 -12 8 -16 -4 -3 -14 1
-23 10 -18 17 -9 21 15 6z m-100 -18 c0 -5 -7 -9 -15 -9 -8 0 -12 4 -9 9 3 4
9 8 15 8 5 0 9 -4 9 -8z m-10 -40 c0 -4 -9 -13 -20 -20 -22 -13 -27 -3 -8 16
14 14 28 16 28 4z m65 -2 c3 -5 1 -10 -4 -10 -6 0 -11 5 -11 10 0 6 2 10 4 10
3 0 8 -4 11 -10z m-275 -37 c0 -8 5 -11 10 -8 6 3 10 1 10 -4 0 -12 -33 -15
-43 -4 -4 3 -2 12 4 20 9 9 8 13 0 13 -6 0 -11 5 -11 11 0 8 5 8 15 -1 8 -7
15 -19 15 -27z m19 -39 c4 -4 -25 -34 -34 -34 -3 0 -3 5 1 12 4 6 -2 17 -12
25 -17 13 -17 14 11 7 17 -4 32 -8 34 -10z m-75 -58 c-3 -8 -13 -17 -22 -21
-13 -5 -13 -2 3 15 21 24 26 25 19 6z m231 -35 c-3 -6 -11 -11 -17 -11 -6 0
-6 6 2 15 14 17 26 13 15 -4z m-85 -1 c0 -5 -5 -10 -11 -10 -5 0 -7 5 -4 10 3
6 8 10 11 10 2 0 4 -4 4 -10z m54 -31 c-3 -5 -10 -7 -15 -4 -5 3 -6 -1 -3 -9
3 -9 2 -16 -3 -16 -5 0 -9 9 -10 20 -1 11 3 20 8 20 6 0 7 6 3 13 -5 8 -3 8 9
-2 9 -7 14 -17 11 -22z m-44 -23 c0 -14 5 -28 10 -31 6 -4 8 -11 5 -16 -4 -5
-2 -9 4 -9 18 0 2 -42 -28 -70 -16 -16 -26 -32 -23 -36 4 -4 1 -4 -5 0 -7 4
-13 14 -13 22 0 10 5 12 13 8 7 -5 7 -1 -2 10 -12 14 -12 19 -2 26 10 5 10 9
2 15 -9 5 -8 13 4 31 9 14 15 33 14 42 -2 26 0 32 11 32 6 0 10 -11 10 -24z
m-40 -6 c0 -5 -4 -10 -10 -10 -5 0 -10 5 -10 10 0 6 5 10 10 10 6 0 10 -4 10
-10z m104 -42 c-8 -13 -31 -9 -37 6 -4 9 1 16 11 18 18 4 34 -11 26 -24z
m-126 -143 c-6 -13 -15 -22 -19 -19 -5 2 -1 14 9 24 22 26 24 25 10 -5z m-298
-31 c17 -11 19 -13 5 -9 -11 4 -25 8 -32 9 -19 3 -28 16 -12 16 8 -1 25 -8 39
-16z m810 -18 c0 -3 -4 -8 -10 -11 -5 -3 -10 -1 -10 4 0 6 5 11 10 11 6 0 10
-2 10 -4z m110 -77 c0 -5 -4 -9 -10 -9 -5 0 -10 7 -10 16 0 8 5 12 10 9 6 -3
10 -10 10 -16z m-70 -4 c-7 -9 -15 -13 -17 -11 -7 7 7 26 19 26 6 0 6 -6 -2
-15z m-80 -31 c0 -8 -19 -13 -24 -6 -3 5 1 9 9 9 8 0 15 -2 15 -3z m-110 -23
c0 -12 -39 -21 -45 -11 -3 5 3 11 12 13 29 8 33 7 33 -2z m190 -13 c19 1 15
-3 -17 -19 -24 -11 -43 -24 -43 -28 0 -5 -11 -8 -25 -8 -13 0 -23 3 -20 7 2 4
-7 5 -20 2 -14 -2 -23 -8 -20 -12 3 -4 -12 -4 -33 1 -48 11 -54 11 -47 -1 3
-5 0 -7 -9 -4 -8 3 -17 12 -20 20 -5 13 7 18 42 17 6 -1 12 3 12 8 0 5 5 9 11
9 5 0 8 -4 5 -9 -3 -4 6 -6 19 -3 14 2 23 8 20 12 -3 4 18 6 45 3 33 -2 50 0
50 7 0 6 5 8 13 3 6 -4 23 -7 37 -5z m-480 -14 c0 -2 -9 -4 -20 -4 -11 0 -20
4 -20 9 0 5 9 7 20 4 11 -3 20 -7 20 -9z m-235 -33 c-3 -6 -11 -11 -17 -11 -6
0 -6 6 2 15 14 17 26 13 15 -4z m289 -5 c-3 -9 3 -17 15 -21 12 -3 18 -12 15
-20 -5 -11 0 -12 27 -5 39 11 49 6 20 -10 -24 -12 -19 -33 4 -23 9 3 22 0 30
-7 9 -8 15 -8 15 -2 0 6 9 14 20 17 11 4 18 11 15 16 -4 5 -4 9 -1 9 2 0 12 3
22 7 12 5 15 3 9 -6 -6 -10 -3 -11 13 -2 26 14 102 14 102 1 0 -5 -4 -10 -10
-10 -5 0 -10 -5 -10 -12 0 -9 3 -9 12 0 14 14 42 16 33 2 -3 -5 -2 -10 4 -10
21 0 21 20 -1 31 -22 12 -22 12 -3 20 36 14 49 11 35 -6 -10 -12 -10 -19 -1
-28 16 -16 45 -15 53 3 6 11 7 10 5 -5 -2 -12 -9 -19 -19 -17 -19 3 -42 -23
-33 -38 3 -5 15 -10 26 -10 11 0 18 -4 15 -8 -2 -4 0 -14 5 -22 6 -11 11 -12
17 -3 5 8 13 8 32 -2 20 -11 21 -14 7 -15 -10 0 -15 -5 -12 -10 4 -6 15 -8 26
-5 11 4 19 2 19 -4 0 -6 -10 -11 -22 -11 -13 0 -18 -4 -13 -8 16 -11 16 -52 0
-52 -7 0 -15 -3 -17 -7 -1 -5 -16 -16 -33 -25 -16 -9 -31 -22 -31 -27 -1 -6
-2 -17 -3 -25 0 -8 -10 -17 -20 -21 -11 -3 -22 -19 -26 -36 -4 -16 -11 -27
-16 -23 -5 3 -9 -2 -9 -10 0 -9 -6 -13 -14 -10 -9 3 -17 -3 -21 -15 -3 -12
-12 -21 -18 -21 -7 0 -24 -11 -39 -24 -14 -14 -29 -22 -32 -19 -3 4 -6 -3 -6
-15 0 -12 -4 -22 -10 -22 -5 0 -7 7 -4 15 8 19 -3 19 -22 1 -10 -11 -11 -15
-2 -18 7 -3 3 -7 -9 -10 -20 -5 -20 -3 -11 24 6 16 8 32 4 35 -3 4 -6 -1 -6
-10 0 -22 -6 -21 -32 3 -20 18 -23 19 -40 3 -11 -10 -18 -12 -18 -4 0 6 11 17
25 23 25 11 35 38 15 38 -6 0 -17 6 -24 12 -11 11 -11 18 2 46 14 29 14 34 2
42 -8 5 -19 5 -25 1 -18 -14 -45 -21 -45 -11 0 5 9 12 21 15 11 4 18 12 16 18
-2 7 -8 23 -12 37 -7 22 -6 23 8 12 14 -12 15 -9 13 23 -2 24 2 39 13 46 12 8
12 9 1 6 -8 -2 -22 6 -32 17 l-17 21 -1 -22 c0 -12 -5 -25 -11 -29 -14 -8 -8
48 6 59 6 4 3 13 -9 22 -16 12 -17 17 -6 30 7 9 8 15 2 15 -6 0 -12 -5 -14
-12 -3 -8 -9 -8 -23 -1 -17 10 -16 13 16 32 29 18 31 21 12 21 -12 0 -25 -4
-28 -10 -3 -5 -12 -10 -18 -10 -7 0 0 11 14 23 14 13 24 28 21 35 -2 8 2 10
14 5 12 -5 15 -3 9 6 -4 8 -2 17 6 22 19 12 19 11 13 -5z m401 4 c-3 -5 -10
-10 -16 -10 -5 0 -9 5 -9 10 0 6 7 10 16 10 8 0 12 -4 9 -10z m-477 -17 c-9
-10 -13 -25 -11 -33 4 -13 3 -13 -6 0 -10 13 -13 13 -25 -3 -12 -16 -13 -16
-13 7 0 18 7 28 26 35 39 14 46 13 29 -6z m487 -93 c3 -5 2 -10 -4 -10 -5 0
-13 5 -16 10 -3 6 -2 10 4 10 5 0 13 -4 16 -10z m75 -20 c0 -5 -10 -10 -22 -9
-22 0 -22 1 -3 9 11 5 21 9 23 9 1 1 2 -3 2 -9z m-540 -80 c0 -5 -5 -10 -11
-10 -5 0 -7 5 -4 10 3 6 8 10 11 10 2 0 4 -4 4 -10z m18 -41 c-2 -6 -8 -10
-13 -10 -5 0 -11 4 -13 10 -2 6 4 11 13 11 9 0 15 -5 13 -11z m-242 -104 c-3
-8 3 -20 12 -27 29 -22 26 -46 -8 -53 -37 -8 -50 -1 -43 25 6 22 -12 28 -21 8
-3 -7 -3 -3 0 10 3 13 1 22 -6 22 -6 0 -9 4 -5 10 3 5 12 7 20 3 8 -3 15 -1
15 4 0 5 9 9 21 10 14 1 19 -3 15 -12z m351 -200 c0 -8 -4 -12 -9 -9 -5 3 -6
10 -3 15 9 13 12 11 12 -6z m14 -42 c13 -16 12 -17 -3 -4 -17 13 -22 21 -14
21 2 0 10 -8 17 -17z m-71 -113 c0 -5 -6 -7 -14 -4 -11 4 -13 -1 -10 -18 4
-21 4 -21 -5 -3 -14 30 -13 35 9 35 11 0 20 -4 20 -10z m745 -2 c5 4 5 1 1 -5
-10 -19 -36 -16 -36 3 0 13 3 14 13 5 8 -6 18 -7 22 -3z m-829 -74 c-12 -13
-26 -1 -26 24 0 9 4 10 19 0 14 -8 16 -14 7 -24z m194 -34 c0 -5 -5 -10 -11
-10 -5 0 -7 5 -4 10 3 6 8 10 11 10 2 0 4 -4 4 -10z m479 -6 c12 8 15 -13 3
-29 -4 -5 -17 -11 -29 -12 -19 -2 -23 2 -23 23 0 14 4 23 10 19 6 -3 10 0 10
7 0 10 2 10 9 -1 5 -7 14 -10 20 -7z m169 1 c2 -2 -1 -18 -6 -36 -8 -32 -11
-34 -46 -32 -38 2 -66 17 -66 34 0 5 8 18 18 28 13 16 25 19 57 14 22 -3 41
-7 43 -8z m-838 -29 c0 -3 -4 -8 -10 -11 -5 -3 -10 -1 -10 4 0 6 5 11 10 11 6
0 10 -2 10 -4z m20 -26 c-8 -5 -22 -9 -30 -9 -10 0 -8 3 5 9 27 12 43 12 25 0z
m863 -47 c-7 -2 -19 -2 -25 0 -7 3 -2 5 12 5 14 0 19 -2 13 -5z m-140 -97 c4
-10 1 -13 -8 -9 -8 3 -12 9 -9 14 7 12 11 11 17 -5z m-10 -66 c3 -11 1 -18 -4
-14 -5 3 -9 12 -9 20 0 20 7 17 13 -6z m-35 -30 c-7 -10 -14 -18 -15 -16 -6 6
9 36 18 36 5 0 4 -9 -3 -20z m166 -6 c10 -25 -1 -29 -14 -5 -6 12 -7 21 -1 21
5 0 12 -7 15 -16z m-20 -29 c3 -8 2 -15 -3 -15 -5 0 -14 7 -21 15 -10 12 -10
15 3 15 8 0 17 -7 21 -15z m26 -59 c0 -2 -7 -7 -16 -10 -8 -3 -12 -2 -9 4 6
10 25 14 25 6z m-152 -174 c2 -15 -2 -22 -14 -22 -13 0 -14 3 -4 15 9 10 9 15
1 15 -6 0 -11 5 -11 11 0 20 25 3 28 -19z m-53 8 c3 -5 1 -10 -4 -10 -6 0 -11
5 -11 10 0 6 2 10 4 10 3 0 8 -4 11 -10z m-602 -17 c-7 -2 -21 -2 -30 0 -10 3
-4 5 12 5 17 0 24 -2 18 -5z m627 -113 c0 -5 -5 -10 -11 -10 -5 0 -7 5 -4 10
3 6 8 10 11 10 2 0 4 -4 4 -10z m70 -14 c0 -17 -14 -29 -23 -20 -8 8 3 34 14
34 5 0 9 -6 9 -14z m123 -31 c-3 -9 -8 -14 -10 -11 -3 3 -2 9 2 15 9 16 15 13
8 -4z m-966 -237 c-3 -8 -6 -5 -6 6 -1 11 2 17 5 13 3 -3 4 -12 1 -19z m-52
-7 c3 -5 1 -12 -5 -16 -5 -3 -10 1 -10 9 0 18 6 21 15 7z m45 -15 c0 -3 -4 -8
-10 -11 -5 -3 -10 -1 -10 4 0 6 5 11 10 11 6 0 10 -2 10 -4z m-28 -30 c7 4 8
2 4 -4 -11 -18 -26 -14 -25 6 0 10 3 12 6 4 2 -6 10 -9 15 -6z m955 -112 c-2
-3 -17 1 -32 8 l-28 13 24 6 c22 5 49 -15 36 -27z m1057 19 c-9 -7 -21 -10
-26 -7 -14 9 -1 20 22 20 20 0 20 -1 4 -13z m-1514 -14 c0 -6 6 -9 14 -6 8 3
18 -5 25 -19 16 -35 14 -40 -6 -17 -10 11 -28 23 -40 27 -26 8 -31 26 -8 26 8
0 15 -5 15 -11z m1450 1 c0 -5 -5 -10 -11 -10 -5 0 -7 5 -4 10 3 6 8 10 11 10
2 0 4 -4 4 -10z m53 -46 c-4 -11 -9 -12 -19 -3 -19 15 -18 20 4 12 15 -6 16
-5 2 13 -14 17 -14 18 2 6 9 -8 14 -20 11 -28z m-142 -16 c-11 -11 -13 -10 -7
0 4 7 2 21 -5 30 -12 15 -11 15 6 0 16 -15 17 -20 6 -30z m94 32 c3 -6 -1 -7
-9 -4 -18 7 -21 14 -7 14 6 0 13 -4 16 -10z m-1600 -20 c3 -5 1 -10 -4 -10 -6
0 -11 5 -11 10 0 6 2 10 4 10 3 0 8 -4 11 -10z m292 -16 c-3 -3 -12 -4 -19 -1
-8 3 -5 6 6 6 11 1 17 -2 13 -5z m140 -20 c-3 -3 -12 -4 -19 -1 -8 3 -5 6 6 6
11 1 17 -2 13 -5z m1164 -11 c13 -16 12 -17 -3 -4 -10 7 -18 15 -18 17 0 8 8
3 21 -13z m-157 -8 c-4 -8 -11 -12 -17 -8 -6 4 -8 0 -4 -11 4 -9 3 -15 -2 -11
-5 3 -12 -1 -14 -7 -4 -10 -6 -10 -6 0 -1 11 33 52 44 52 2 0 2 -7 -1 -15z
m-981 -2 c-7 -2 -19 -2 -25 0 -7 3 -2 5 12 5 14 0 19 -2 13 -5z m1154 -39 c17
-14 16 -14 -4 -4 -13 6 -27 20 -33 33 -10 20 -10 21 4 4 8 -10 23 -25 33 -33z
m-253 -26 c-3 -4 -9 -8 -15 -8 -5 0 -9 4 -9 8 0 5 7 9 15 9 8 0 12 -4 9 -9z
m-36 -23 c-3 -3 -9 2 -12 12 -6 14 -5 15 5 6 7 -7 10 -15 7 -18z m272 -7 c0
-12 -6 -9 -26 13 -19 22 -19 22 4 8 12 -8 22 -17 22 -21z m-35 2 c10 -11 16
-20 13 -20 -3 0 -13 9 -23 20 -10 11 -16 20 -13 20 3 0 13 -9 23 -20z m-1488
-5 c0 -8 -4 -12 -9 -9 -4 3 -8 9 -8 15 0 5 4 9 8 9 5 0 9 -7 9 -15z m1461 -50
c-3 -3 -13 7 -23 22 l-17 28 23 -22 c12 -12 20 -25 17 -28z m-27 -2 c13 -16
12 -17 -3 -4 -10 7 -18 15 -18 17 0 8 8 3 21 -13z m-47 -19 c3 -8 2 -12 -4 -9
-6 3 -10 10 -10 16 0 14 7 11 14 -7z m176 1 c0 -8 -7 -15 -15 -15 -26 0 -18
20 13 29 1 1 2 -6 2 -14z m-209 -47 c11 -21 11 -22 -4 -9 -10 7 -17 17 -17 22
0 15 9 10 21 -13z m-11 -32 c0 -6 -7 -1 -15 10 -8 10 -15 23 -15 28 0 6 7 1
15 -10 8 -10 15 -23 15 -28z m-143 -8 c-3 -8 -6 -5 -6 6 -1 11 2 17 5 13 3 -3
4 -12 1 -19z m93 -13 c0 -5 -5 -3 -10 5 -5 8 -10 20 -10 25 0 6 5 3 10 -5 5
-8 10 -19 10 -25z m25 15 c3 -5 1 -10 -4 -10 -6 0 -11 5 -11 10 0 6 2 10 4 10
3 0 8 -4 11 -10z m-47 -35 c-3 -3 -9 2 -12 12 -6 14 -5 15 5 6 7 -7 10 -15 7
-18z m-24 0 c3 -8 1 -15 -4 -15 -6 0 -10 7 -10 15 0 8 2 15 4 15 2 0 6 -7 10
-15z m11 -63 c22 -24 33 -40 24 -37 -10 4 -20 1 -24 -4 -7 -13 -25 -5 -25 10
0 6 5 7 10 4 16 -10 12 5 -10 32 -11 14 -20 30 -20 36 0 6 1 8 3 6 1 -2 20
-24 42 -47z m25 23 c0 -8 -7 -15 -15 -15 -8 0 -15 7 -15 15 0 8 7 15 15 15 8
0 15 -7 15 -15z m-70 -36 c0 -11 -4 -17 -10 -14 -5 3 -10 13 -10 21 0 8 5 14
10 14 6 0 10 -9 10 -21z m-173 -11 c-3 -8 -6 -5 -6 6 -1 11 2 17 5 13 3 -3 4
-12 1 -19z m146 2 c3 -11 2 -20 -3 -20 -12 0 -31 26 -23 33 11 12 21 7 26 -13z
m122 10 c3 -5 1 -10 -4 -10 -6 0 -11 5 -11 10 0 6 2 10 4 10 3 0 8 -4 11 -10z
m-165 -20 c0 -5 -7 -7 -15 -4 -9 4 -15 0 -15 -10 0 -9 -4 -16 -10 -16 -14 0
-12 27 3 33 21 9 37 8 37 -3z m-75 -21 c11 -17 -1 -21 -15 -4 -8 9 -8 15 -2
15 6 0 14 -5 17 -11z m161 0 c3 -6 2 -15 -4 -21 -6 -6 -11 -2 -15 11 -5 22 7
29 19 10z m-196 -15 c0 -8 -4 -12 -10 -9 -5 3 -10 10 -10 16 0 5 5 9 10 9 6 0
10 -7 10 -16z m-40 2 c0 -3 -4 -8 -10 -11 -5 -3 -10 -1 -10 4 0 6 5 11 10 11
6 0 10 -2 10 -4z m181 -6 c10 6 20 6 23 1 3 -4 -5 -13 -18 -19 -24 -11 -46 0
-46 22 0 6 5 5 12 -2 7 -7 17 -8 29 -2z m-44 -35 c0 -5 -11 -11 -24 -11 -13
-1 -23 2 -23 6 0 5 -11 7 -25 4 -18 -3 -23 -1 -19 9 5 14 38 16 50 4 14 -13
23 -7 17 10 -6 15 -5 16 8 3 9 -8 16 -19 16 -25z m-140 -21 c-3 -3 -12 -4 -19
-1 -8 3 -5 6 6 6 11 1 17 -2 13 -5z m373 -90 c0 -2 -9 -4 -21 -4 -11 0 -18 4
-14 10 5 8 35 3 35 -6z"/>
<path d="M1760 3875 c0 -8 5 -15 10 -15 6 0 10 7 10 15 0 8 -4 15 -10 15 -5 0
-10 -7 -10 -15z"/>
<path d="M1660 3030 c-9 -6 -10 -10 -3 -10 6 0 15 5 18 10 8 12 4 12 -15 0z"/>
<path d="M1968 2623 c7 -3 16 -2 19 1 4 3 -2 6 -13 5 -11 0 -14 -3 -6 -6z"/>
<path d="M1750 2600 c-13 -8 -12 -10 3 -10 9 0 17 5 17 10 0 12 -1 12 -20 0z"/>
<path d="M1742 2510 c0 -14 2 -19 5 -12 2 6 2 18 0 25 -3 6 -5 1 -5 -13z"/>
<path d="M1790 2254 c0 -6 6 -17 14 -23 11 -9 15 -8 20 4 4 10 2 14 -5 9 -6
-4 -15 0 -20 7 -5 8 -9 9 -9 3z"/>
<path d="M3310 4099 c-44 -9 -148 -46 -163 -59 -4 -3 16 -7 44 -7 28 0 54 -5
58 -10 3 -5 26 -22 51 -36 25 -14 63 -44 85 -66 22 -22 47 -40 55 -40 9 0 0
12 -20 29 -19 16 -31 30 -25 30 13 0 -30 29 -84 56 -38 19 -42 23 -21 23 14 0
42 -3 62 -8 22 -5 36 -5 32 0 -8 14 3 11 49 -13 44 -24 74 -30 82 -18 7 11
-45 61 -80 76 -16 7 -23 14 -15 14 12 0 11 3 -3 11 -9 5 -21 8 -26 5 -5 -4
-17 -3 -26 0 -13 5 -14 8 -3 15 15 10 9 10 -52 -2z"/>
<path d="M3537 4060 c15 -16 31 -30 36 -30 4 0 -6 14 -23 30 -17 17 -33 30
-36 30 -3 0 7 -13 23 -30z"/>
<path d="M3410 3973 c0 -5 11 -20 25 -33 14 -13 25 -19 25 -13 0 5 -11 20 -25
33 -14 13 -25 19 -25 13z"/>
<path d="M3625 3920 c10 -11 20 -18 23 -15 7 6 -18 35 -31 35 -5 0 -2 -9 8
-20z"/>
<path d="M3620 3896 c0 -4 7 -14 15 -22 8 -9 15 -11 15 -6 0 5 -7 15 -15 22
-8 7 -15 9 -15 6z"/>
<path d="M3560 3870 c6 -11 24 -30 40 -42 17 -12 30 -26 30 -31 0 -5 -7 -4
-15 3 -8 7 -15 10 -15 6 0 -9 22 -47 40 -69 12 -16 12 -19 0 -27 -13 -8 -12
-10 3 -10 9 0 16 -3 16 -7 -4 -22 4 -34 31 -48 34 -17 41 -7 10 15 -26 19 -26
33 0 25 15 -5 18 -3 14 9 -3 9 -10 16 -14 16 -12 0 -70 60 -70 72 0 6 8 7 18
4 9 -4 -8 18 -38 48 -30 31 -56 56 -58 56 -1 0 2 -9 8 -20z"/>
<path d="M3580 3746 c0 -2 8 -10 18 -17 15 -13 16 -12 3 4 -13 16 -21 21 -21
13z"/>
<path d="M1930 3659 c0 -5 5 -7 10 -4 6 3 10 8 10 11 0 2 -4 4 -10 4 -5 0 -10
-5 -10 -11z"/>
<path d="M1955 3640 c-3 -5 -1 -10 4 -10 6 0 11 5 11 10 0 6 -2 10 -4 10 -3 0
-8 -4 -11 -10z"/>
<path d="M1895 3600 c3 -5 8 -10 11 -10 2 0 4 5 4 10 0 6 -5 10 -11 10 -5 0
-7 -4 -4 -10z"/>
<path d="M1970 3520 c0 -5 5 -10 11 -10 5 0 7 5 4 10 -3 6 -8 10 -11 10 -2 0
-4 -4 -4 -10z"/>
<path d="M1996 3505 c-3 -8 -1 -15 4 -15 6 0 10 7 10 15 0 8 -2 15 -4 15 -2 0
-6 -7 -10 -15z"/>
<path d="M1915 3381 c-7 -12 12 -24 25 -16 11 7 4 25 -10 25 -5 0 -11 -4 -15
-9z"/>
<path d="M1888 3333 c7 -3 16 -2 19 1 4 3 -2 6 -13 5 -11 0 -14 -3 -6 -6z"/>
<path d="M1913 3313 c-7 -2 -13 -9 -13 -15 0 -7 5 -7 13 1 8 6 18 7 22 3 5 -4
5 -1 1 6 -4 6 -8 12 -9 11 -1 0 -8 -3 -14 -6z"/>
<path d="M1860 3301 c0 -8 -7 -11 -15 -7 -8 3 -15 1 -15 -4 0 -6 6 -10 14 -10
17 0 31 18 22 27 -3 4 -6 1 -6 -6z"/>
<path d="M1860 3256 c0 -8 -6 -16 -12 -19 -7 -2 -1 -4 15 -4 30 -1 29 -1 21
21 -8 20 -24 21 -24 2z"/>
<path d="M1948 3253 c7 -3 16 -2 19 1 4 3 -2 6 -13 5 -11 0 -14 -3 -6 -6z"/>
<path d="M1793 3176 c3 -7 0 -19 -6 -26 -9 -10 -9 -11 3 -8 18 5 26 48 10 48
-7 0 -10 -6 -7 -14z"/>
<path d="M1520 3156 c0 -7 6 -28 13 -45 l14 -32 0 45 c0 32 -5 46 -14 46 -7 0
-13 -6 -13 -14z"/>
<path d="M2841 3040 c-30 -17 -56 -28 -59 -25 -2 2 7 10 22 16 14 7 26 16 26
21 0 11 -8 10 -23 -2 -7 -6 -24 -19 -39 -31 -31 -23 -36 -46 -13 -55 8 -4 15
-16 15 -28 0 -12 3 -16 8 -10 4 6 16 14 26 18 14 5 10 -3 -12 -24 -29 -27 -47
-80 -22 -65 6 3 10 1 10 -4 0 -6 7 -11 15 -11 20 0 19 -10 -2 -26 -17 -13 -17
-15 2 -29 11 -8 26 -19 33 -25 7 -6 26 -12 42 -12 17 -1 30 -5 30 -10 0 -5 5
-6 12 -2 7 5 5 11 -7 21 -18 12 -10 19 18 14 5 -1 6 3 2 9 -3 5 -12 10 -18 10
-7 0 -13 9 -13 20 0 29 10 25 40 -15 24 -31 32 -35 75 -35 58 0 91 29 91 78 0
18 4 32 8 32 15 0 62 -56 62 -73 0 -9 6 -14 13 -11 7 2 34 -7 60 -20 26 -14
47 -23 47 -20 0 2 -25 29 -56 59 -69 69 -61 72 14 5 31 -27 60 -50 65 -50 13
0 -27 52 -76 97 -25 23 -42 44 -39 47 5 6 -23 10 -43 7 -5 -1 3 9 19 24 33 29
40 31 33 11 -3 -8 0 -17 8 -20 27 -10 -1 38 -32 55 -34 19 -89 33 -118 31 -11
-1 -15 1 -8 4 16 7 5 34 -11 28 -7 -3 -33 2 -57 10 -62 22 -87 20 -148 -14z
m14 -100 c-3 -5 -12 -10 -18 -10 -7 0 -6 4 3 10 19 12 23 12 15 0z m210 -80
c-3 -5 -13 -10 -21 -10 -8 0 -12 5 -9 10 3 6 13 10 21 10 8 0 12 -4 9 -10z"/>
<path d="M1532 3040 c14 -22 24 -19 15 5 -4 8 -11 15 -17 15 -6 0 -6 -7 2 -20z"/>
<path d="M1550 3000 c0 -5 5 -10 10 -10 6 0 10 5 10 10 0 6 -4 10 -10 10 -5 0
-10 -4 -10 -10z"/>
<path d="M1550 2965 c0 -8 5 -15 10 -15 6 0 10 7 10 15 0 8 -4 15 -10 15 -5 0
-10 -7 -10 -15z"/>
<path d="M3870 2890 c-12 -8 -9 -10 13 -10 15 0 30 0 34 -1 4 0 9 4 11 10 5
14 -38 14 -58 1z"/>
<path d="M1560 2849 c0 -5 5 -7 10 -4 6 3 10 8 10 11 0 2 -4 4 -10 4 -5 0 -10
-5 -10 -11z"/>
<path d="M3942 2824 c-7 -8 -18 -11 -24 -8 -6 4 -8 3 -5 -3 4 -6 0 -14 -9 -17
-13 -5 -14 -9 -4 -21 7 -8 10 -25 7 -37 -3 -13 -9 -63 -12 -111 -4 -48 -10
-101 -15 -117 -5 -17 -6 -30 -4 -30 11 0 44 90 58 160 9 41 21 96 27 122 12
54 3 85 -19 62z"/>
<path d="M2850 2712 c0 -9 44 -32 58 -32 10 1 -38 40 -49 40 -5 0 -9 -4 -9 -8z"/>
<path d="M3650 2615 c-13 -34 -13 -48 1 -39 8 4 9 -1 4 -17 -4 -17 -3 -20 3
-10 8 11 11 10 19 -4 7 -12 13 -14 17 -6 4 6 2 11 -5 11 -8 0 -10 11 -6 34 8
47 -18 71 -33 31z"/>
<path d="M1481 2504 c0 -11 3 -14 6 -6 3 7 2 16 -1 19 -3 4 -6 -2 -5 -13z"/>
<path d="M1485 2460 c3 -5 8 -10 11 -10 2 0 4 5 4 10 0 6 -5 10 -11 10 -5 0
-7 -4 -4 -10z"/>
<path d="M3715 2450 c3 -5 8 -10 11 -10 2 0 4 5 4 10 0 6 -5 10 -11 10 -5 0
-7 -4 -4 -10z"/>
<path d="M1602 2358 c-15 -19 -12 -70 4 -64 7 3 15 0 18 -7 4 -7 3 -1 0 13 -3
14 -7 35 -8 48 -1 26 -1 26 -14 10z"/>
<path d="M2885 2271 c4 -14 3 -21 -2 -18 -5 4 -10 0 -10 -8 0 -8 3 -15 6 -15
3 0 12 -13 19 -29 18 -40 102 -124 102 -101 0 5 -5 12 -11 15 -5 4 -8 14 -7
23 2 10 -6 33 -17 52 -12 19 -24 43 -28 53 -4 9 -15 20 -24 24 -10 4 -22 11
-26 17 -5 6 -5 0 -2 -13z"/>
<path d="M2613 2238 c-13 -6 -23 -14 -23 -18 0 -6 111 -30 140 -30 7 0 -4 14
-25 30 -40 32 -57 35 -92 18z"/>
<path d="M1595 2134 c4 -11 7 -27 7 -36 -1 -23 17 -33 31 -19 9 9 8 11 -5 6
-14 -6 -17 -1 -15 26 1 20 -3 34 -12 37 -11 3 -12 0 -6 -14z"/>
<path d="M2711 2124 c0 -11 3 -14 6 -6 3 7 2 16 -1 19 -3 4 -6 -2 -5 -13z"/>
<path d="M2686 2118 c5 -7 2 -9 -9 -5 -9 3 -18 0 -21 -8 -3 -8 -11 -13 -18
-11 -7 1 -10 1 -5 -1 13 -8 7 -21 -12 -26 -14 -3 -21 2 -25 19 -4 13 -11 24
-17 24 -7 0 -9 -8 -4 -22 5 -13 8 -41 8 -63 0 -22 2 -34 4 -27 3 6 9 10 14 6
5 -3 14 7 20 23 6 15 13 23 16 16 2 -7 -1 -22 -8 -35 -11 -20 -10 -21 3 -11 8
7 18 10 21 6 4 -3 7 1 7 10 0 12 9 17 33 18 17 0 26 3 20 6 -7 2 -13 12 -13
21 0 15 2 15 10 2 7 -10 10 -11 10 -2 0 7 -7 15 -15 18 -8 4 -15 10 -15 15 0
4 7 6 16 2 14 -5 13 -3 -2 15 -20 24 -30 29 -18 10z"/>
<path d="M2865 2090 c-4 -6 -11 -8 -16 -5 -5 4 -9 0 -9 -9 0 -8 5 -16 11 -18
6 -2 12 -17 13 -34 2 -16 8 -39 15 -49 10 -16 11 -16 7 -2 -3 9 -1 17 4 17 6
0 10 12 10 26 0 19 -4 25 -14 21 -12 -5 -13 1 -9 29 6 33 0 44 -12 24z"/>
<path d="M2810 2065 c0 -18 19 -40 26 -32 4 4 0 15 -9 24 -9 10 -17 13 -17 8z"/>
<path d="M1600 2049 c0 -6 25 -19 36 -19 2 0 4 6 4 13 0 7 -9 13 -20 13 -11 0
-20 -3 -20 -7z"/>
<path d="M1536 2035 c4 -8 8 -15 10 -15 2 0 4 7 4 15 0 8 -4 15 -10 15 -5 0
-7 -7 -4 -15z"/>
<path d="M1588 1973 c6 -2 10 -9 7 -13 -3 -5 -1 -11 5 -15 5 -3 10 3 10 14 0
14 -6 21 -17 20 -11 0 -13 -3 -5 -6z"/>
<path d="M1581 1794 c0 -11 3 -14 6 -6 3 7 2 16 -1 19 -3 4 -6 -2 -5 -13z"/>
<path d="M2633 1781 c-3 -11 -10 -21 -16 -21 -6 0 -8 -2 -5 -5 2 -3 22 4 43
15 22 11 34 20 28 20 -6 0 -19 3 -28 6 -11 5 -18 0 -22 -15z"/>
<path d="M1595 1760 c-3 -5 -1 -10 4 -10 6 0 11 5 11 10 0 6 -2 10 -4 10 -3 0
-8 -4 -11 -10z"/>
<path d="M2970 1726 c0 -9 5 -16 10 -16 6 0 10 4 10 9 0 6 -4 13 -10 16 -5 3
-10 -1 -10 -9z"/>
<path d="M2438 1706 c-3 -17 -4 -36 -1 -43 7 -18 33 -16 33 2 0 8 -4 15 -9 15
-5 0 -11 12 -13 28 l-3 27 -7 -29z"/>
<path d="M2463 1393 c-15 -5 -17 -23 -4 -23 5 0 11 7 15 15 3 8 4 15 3 14 -1
0 -8 -3 -14 -6z"/>
<path d="M1670 1370 c-13 -8 -12 -10 3 -10 9 0 17 5 17 10 0 12 -1 12 -20 0z"/>
<path d="M1630 1338 c0 -9 5 -20 10 -23 13 -8 13 5 0 25 -8 13 -10 13 -10 -2z"/>
<path d="M2455 1240 c-3 -6 1 -7 9 -4 18 7 21 14 7 14 -6 0 -13 -4 -16 -10z"/>
<path d="M2505 1240 c3 -5 8 -10 11 -10 2 0 4 5 4 10 0 6 -5 10 -11 10 -5 0
-7 -4 -4 -10z"/>
<path d="M2620 1200 c0 -5 5 -10 11 -10 5 0 7 5 4 10 -3 6 -8 10 -11 10 -2 0
-4 -4 -4 -10z"/>
<path d="M3044 1195 c-10 -25 5 -65 24 -65 12 0 14 2 4 8 -7 5 -14 23 -15 40
-2 36 -5 39 -13 17z"/>
<path d="M2790 1106 c0 -2 8 -10 18 -17 15 -13 16 -12 3 4 -13 16 -21 21 -21
13z"/>
<path d="M3455 790 c3 -5 8 -10 11 -10 2 0 4 5 4 10 0 6 -5 10 -11 10 -5 0 -7
-4 -4 -10z"/>
<path d="M3738 737 c9 -18 27 -43 40 -57 12 -13 22 -31 22 -39 0 -14 -1 -14
-10 -1 -5 8 -10 10 -10 4 0 -6 10 -18 22 -26 20 -13 21 -17 9 -32 -9 -11 -21
-14 -35 -10 -17 6 -19 5 -9 -8 10 -11 10 -17 0 -28 -10 -12 -9 -12 3 -3 23 18
37 2 35 -39 -2 -37 8 -50 18 -25 4 9 6 9 6 0 1 -7 -8 -18 -19 -25 -26 -17 -25
-28 3 -29 19 0 20 -1 4 -8 -17 -6 -17 -8 -4 -20 9 -7 13 -19 10 -27 -3 -9 2
-14 16 -14 25 0 27 -13 5 -31 -13 -11 -14 -15 -2 -23 15 -12 21 -96 6 -96 -5
0 -3 -7 6 -15 8 -8 21 -12 29 -9 11 4 16 -2 19 -18 2 -13 8 -23 15 -23 6 0 14
-3 18 -7 4 -3 -5 -5 -18 -4 -24 3 -25 2 -11 -20 9 -13 22 -20 30 -17 8 3 14 1
14 -5 0 -5 -7 -12 -15 -16 -8 -3 -15 -10 -15 -16 0 -6 4 -9 9 -6 4 3 13 -6 19
-19 l12 -25 164 0 c150 0 202 8 160 24 -11 4 -15 14 -12 30 4 18 0 26 -14 29
-11 3 -16 11 -12 20 3 8 1 18 -5 22 -6 3 -11 14 -11 24 0 9 -9 27 -19 38 -11
12 -17 23 -14 27 3 3 -8 18 -25 34 -17 16 -28 32 -25 36 3 3 1 6 -6 6 -7 0 -9
5 -6 10 3 6 1 10 -5 10 -6 0 -9 4 -5 10 7 11 -14 50 -37 68 -10 7 -18 20 -18
28 0 8 -5 14 -11 14 -5 0 -7 4 -4 10 3 5 -3 15 -15 22 -11 7 -20 19 -20 26 0
8 -11 23 -25 34 -14 11 -23 24 -20 28 3 5 -3 15 -15 22 -11 7 -20 18 -20 24 0
7 -16 26 -35 43 -19 17 -35 35 -35 41 0 6 -4 8 -10 5 -5 -3 -10 1 -10 10 0 9
-4 13 -10 10 -5 -3 -10 -3 -10 2 0 8 -91 63 -104 63 -3 0 2 -15 12 -33z m142
-487 c0 -5 -5 -10 -11 -10 -5 0 -7 5 -4 10 3 6 8 10 11 10 2 0 4 -4 4 -10z"/>
<path d="M3640 690 c0 -5 5 -10 11 -10 5 0 7 5 4 10 -3 6 -8 10 -11 10 -2 0
-4 -4 -4 -10z"/>
<path d="M1975 650 c-3 -5 -1 -10 4 -10 6 0 11 5 11 10 0 6 -2 10 -4 10 -3 0
-8 -4 -11 -10z"/>
<path d="M3635 640 c-3 -5 -2 -10 4 -10 5 0 13 5 16 10 3 6 2 10 -4 10 -5 0
-13 -4 -16 -10z"/>
<path d="M3607 595 c-10 -14 -16 -25 -13 -25 9 0 46 34 46 42 0 15 -15 7 -33
-17z"/>
<path d="M3797 603 c-4 -3 -7 -11 -7 -17 0 -6 5 -5 12 2 6 6 9 14 7 17 -3 3
-9 2 -12 -2z"/>
<path d="M1986 587 c3 -10 9 -15 12 -12 3 3 0 11 -7 18 -10 9 -11 8 -5 -6z"/>
<path d="M2220 596 c0 -2 7 -7 16 -10 8 -3 12 -2 9 4 -6 10 -25 14 -25 6z"/>
<path d="M2116 579 c3 -5 14 -9 25 -9 11 0 17 -4 14 -10 -3 -6 1 -7 10 -4 11
5 13 10 5 19 -12 14 -63 18 -54 4z"/>
<path d="M3685 580 c3 -5 8 -10 11 -10 2 0 4 5 4 10 0 6 -5 10 -11 10 -5 0 -7
-4 -4 -10z"/>
<path d="M3634 569 c-3 -6 -1 -16 5 -22 9 -9 10 -7 5 7 -6 16 -4 18 10 13 10
-4 15 -3 11 3 -8 13 -22 13 -31 -1z"/>
<path d="M2196 559 c-8 -26 -3 -49 11 -49 10 0 12 8 7 28 -8 34 -12 39 -18 21z"/>
<path d="M2278 553 c7 -3 16 -2 19 1 4 3 -2 6 -13 5 -11 0 -14 -3 -6 -6z"/>
<path d="M3613 510 c-3 -11 -10 -17 -16 -13 -6 4 -7 1 -2 -7 4 -7 2 -15 -4
-19 -14 -9 -4 -91 11 -91 5 0 6 -5 2 -11 -5 -8 -8 -8 -13 0 -5 8 -13 7 -26 -2
-17 -13 -16 -15 12 -27 26 -12 28 -16 17 -27 -11 -11 -11 -17 -1 -28 10 -11
15 -11 28 1 28 25 31 15 3 -11 -28 -26 -40 -32 -29 -16 9 16 -9 20 -23 5 -11
-12 -10 -14 5 -16 10 0 24 -2 30 -2 18 -2 11 -21 -7 -21 -8 0 -14 -5 -12 -10
1 -6 9 -10 16 -10 8 0 18 -4 22 -8 4 -4 -4 -7 -18 -7 -21 0 -25 -4 -21 -20 3
-13 0 -20 -8 -20 -7 0 -3 -7 9 -16 17 -12 26 -13 37 -4 8 7 15 7 19 1 4 -6 -3
-15 -15 -21 -11 -7 -18 -14 -15 -17 3 -3 12 0 20 6 12 10 20 10 38 -3 22 -16
22 -16 1 -16 -14 0 -22 -8 -25 -25 -5 -25 5 -34 17 -16 6 11 45 10 45 -1 0 -4
-9 -8 -19 -8 -10 0 -21 -6 -24 -14 -4 -11 13 -14 84 -15 62 -1 89 2 89 10 0 6
7 8 16 5 14 -5 15 -4 4 9 -7 9 -19 14 -27 11 -11 -4 -11 -1 -3 14 8 15 8 18
-3 14 -8 -3 -20 2 -27 11 -12 14 -10 15 13 11 29 -5 32 0 17 24 -7 11 -10 11
-10 2 0 -8 -8 -5 -22 8 -12 11 -26 20 -31 20 -6 0 -3 8 6 18 15 17 15 20 0 42
-10 14 -16 36 -14 49 1 13 -3 28 -11 32 -19 12 -30 11 -22 -2 4 -7 1 -10 -6
-7 -8 2 -16 10 -18 18 -4 10 3 12 29 7 30 -6 32 -5 17 7 -10 7 -14 17 -10 21
4 5 -1 5 -11 2 -11 -4 -16 -3 -12 3 3 6 -4 24 -15 41 -12 16 -19 33 -16 36 3
3 0 13 -7 22 -10 14 -10 14 4 4 20 -16 28 -8 22 18 -5 16 -8 18 -14 7 -7 -10
-9 -9 -9 5 0 9 -5 17 -11 17 -5 0 -7 5 -4 10 3 6 -1 10 -9 10 -9 0 -16 -6 -16
-12 0 -9 -4 -8 -10 2 -13 20 -13 33 0 25 6 -3 10 -1 10 4 0 19 -22 12 -27 -9z
m62 -290 c-3 -5 -11 -10 -16 -10 -6 0 -7 5 -4 10 3 6 11 10 16 10 6 0 7 -4 4
-10z m-33 -62 c-5 -5 -19 -10 -31 -13 -19 -3 -21 -2 -11 10 6 7 20 13 31 12
10 -1 15 -5 11 -9z"/>
<path d="M2140 508 c0 -10 7 -18 15 -18 8 0 15 -5 15 -10 0 -7 6 -7 20 0 19
10 54 1 70 -19 9 -11 65 -28 78 -23 17 5 -16 31 -40 32 -10 0 -15 5 -12 13 3
8 -6 18 -21 25 -21 10 -30 9 -49 -3 -23 -16 -54 -11 -68 9 -5 7 -8 4 -8 -6z"/>
<path d="M2322 488 c5 -15 28 -23 28 -10 0 5 -7 13 -16 16 -10 4 -14 1 -12 -6z"/>
<path d="M2366 472 c-2 -4 4 -9 15 -9 11 -1 17 2 14 8 -7 11 -22 12 -29 1z"/>
<path d="M4230 459 c0 -5 5 -7 10 -4 6 3 10 8 10 11 0 2 -4 4 -10 4 -5 0 -10
-5 -10 -11z"/>
<path d="M3750 456 c0 -2 7 -9 15 -16 9 -7 15 -8 15 -2 0 5 -7 12 -15 16 -8 3
-15 4 -15 2z"/>
<path d="M2210 445 c0 -2 6 -8 13 -14 10 -8 14 -7 14 2 0 8 -6 14 -14 14 -7 0
-13 -1 -13 -2z"/>
<path d="M4194 419 c-3 -5 -2 -9 2 -9 4 0 -1 -10 -12 -22 -19 -21 -19 -21 0
-11 16 9 23 7 37 -11 18 -21 18 -21 14 14 -2 19 1 37 7 41 5 4 -2 7 -16 7 -15
0 -29 -4 -32 -9z"/>
<path d="M4260 420 c0 -5 5 -10 10 -10 6 0 10 5 10 10 0 6 -4 10 -10 10 -5 0
-10 -4 -10 -10z"/>
<path d="M3560 395 c-10 -12 -10 -15 4 -15 9 0 16 7 16 15 0 8 -2 15 -4 15 -2
0 -9 -7 -16 -15z"/>
<path d="M4262 398 c-13 -7 -21 -17 -17 -26 3 -7 5 -18 5 -23 0 -5 7 -9 15 -9
8 0 15 5 15 11 0 5 5 7 11 3 7 -4 -1 -14 -21 -27 -27 -17 -30 -22 -18 -31 8
-6 13 -17 10 -25 -3 -8 0 -11 7 -7 7 4 11 0 11 -13 0 -10 6 -22 13 -24 10 -4
10 -6 0 -6 -19 -1 -16 -41 3 -41 11 0 14 -5 10 -16 -3 -8 1 -22 9 -31 12 -11
13 -19 5 -28 -8 -10 -6 -15 9 -20 12 -3 21 -15 21 -25 0 -10 6 -21 13 -23 10
-4 10 -6 0 -6 -7 -1 -13 -7 -13 -14 0 -10 26 -14 106 -16 l105 -2 -25 40 c-15
22 -26 44 -26 48 0 5 5 1 10 -7 5 -8 10 -10 10 -4 0 7 -13 26 -28 42 -19 20
-26 35 -21 44 10 15 12 55 3 45 -9 -9 -52 34 -50 50 2 9 -8 26 -21 39 -13 13
-23 31 -24 41 0 16 -1 16 -9 -2 -5 -11 -9 -14 -9 -7 -1 6 -7 12 -15 12 -8 0
-16 7 -20 15 -3 8 -11 14 -18 13 -8 -2 -13 6 -12 20 2 24 -9 26 -44 10z"/>
<path d="M3720 379 c0 -5 5 -7 10 -4 6 3 10 8 10 11 0 2 -4 4 -10 4 -5 0 -10
-5 -10 -11z"/>
<path d="M3780 380 c0 -5 5 -10 10 -10 6 0 10 5 10 10 0 6 -4 10 -10 10 -5 0
-10 -4 -10 -10z"/>
<path d="M3340 335 c0 -15 -2 -15 -16 -5 -13 12 -14 10 -2 -14 7 -16 14 -24
16 -18 2 6 10 8 18 5 19 -7 18 21 -1 37 -12 10 -15 9 -15 -5z"/>
<path d="M3516 335 c4 -8 8 -15 10 -15 2 0 4 7 4 15 0 8 -4 15 -10 15 -5 0 -7
-7 -4 -15z"/>
<path d="M3300 289 c0 -5 5 -7 10 -4 6 3 10 8 10 11 0 2 -4 4 -10 4 -5 0 -10
-5 -10 -11z"/>
<path d="M3780 278 c0 -4 6 -8 14 -8 8 0 17 4 20 8 2 4 -4 8 -15 8 -10 0 -19
-4 -19 -8z"/>
<path d="M3835 269 c-4 -6 -5 -12 -2 -15 2 -3 7 2 10 11 7 17 1 20 -8 4z"/>
<path d="M3770 230 c0 -5 5 -10 10 -10 6 0 10 5 10 10 0 6 -4 10 -10 10 -5 0
-10 -4 -10 -10z"/>
<path d="M3791 156 c-9 -11 -8 -15 5 -20 17 -7 34 0 34 14 0 5 -7 6 -17 3 -11
-4 -14 -3 -9 5 10 16 1 15 -13 -2z"/>
<path d="M3485 120 c-3 -5 -1 -10 4 -10 6 0 11 5 11 10 0 6 -2 10 -4 10 -3 0
-8 -4 -11 -10z"/>
<path d="M4632 89 c5 -16 58 -23 58 -8 0 6 -8 9 -17 7 -10 -1 -24 1 -32 6 -9
6 -12 5 -9 -5z"/>
<path d="M4797 61 c-4 -17 -3 -21 5 -13 5 5 8 16 6 23 -3 8 -7 3 -11 -10z"/>
<path d="M4860 66 c0 -2 7 -9 15 -16 9 -7 15 -8 15 -2 0 5 -7 12 -15 16 -8 3
-15 4 -15 2z"/>
<path d="M4900 50 c0 -5 5 -10 10 -10 6 0 10 5 10 10 0 6 -4 10 -10 10 -5 0
-10 -4 -10 -10z"/>
<path d="M4670 31 c0 -10 50 -25 58 -16 8 7 1 11 -30 19 -16 3 -28 2 -28 -3z"/>
<path d="M3525 10 c4 -6 11 -8 16 -5 14 9 11 15 -7 15 -8 0 -12 -5 -9 -10z"/>
<path d="M4820 10 c0 -5 4 -10 9 -10 6 0 13 5 16 10 3 6 -1 10 -9 10 -9 0 -16
-4 -16 -10z"/>
</g>
</svg>
