<?xml version="1.0" standalone="no"?>
<!DOCTYPE svg PUBLIC "-//W3C//DTD SVG 20010904//EN"
 "http://www.w3.org/TR/2001/REC-SVG-20010904/DTD/svg10.dtd">
<svg version="1.0" xmlns="http://www.w3.org/2000/svg"
 width="500.000000pt" height="500.000000pt" viewBox="0 0 500.000000 500.000000"
 preserveAspectRatio="xMidYMid meet">
<metadata>
Created by potrace 1.14, written by Peter Selinger 2001-2017
</metadata>
<g transform="translate(0.000000,500.000000) scale(0.100000,-0.100000)"
fill="#000000" stroke="none">
<path d="M2666 4653 c-4 -4 -61 -9 -127 -10 -65 -1 -124 -5 -129 -8 -5 -3 -33
-8 -62 -11 -29 -2 -61 -7 -72 -10 -18 -6 -19 -5 -7 10 27 33 -29 10 -119 -49
-38 -25 -71 -45 -74 -45 -3 0 -15 -4 -28 -9 -13 -5 -26 -9 -30 -10 -8 -1 -48
-33 -80 -63 -10 -10 -27 -18 -38 -18 -11 0 -20 -5 -20 -11 0 -6 -13 -25 -30
-42 -16 -18 -30 -35 -30 -39 -1 -14 -73 -88 -85 -88 -7 0 -20 -11 -29 -24 -8
-14 -25 -27 -36 -31 -11 -4 -18 -11 -15 -16 7 -10 -62 -83 -87 -92 -10 -4 -18
-15 -18 -25 0 -11 -7 -25 -15 -32 -14 -12 -39 -60 -89 -172 -9 -20 -16 -45
-16 -55 0 -10 -6 -25 -12 -32 -11 -11 -10 -14 0 -18 8 -3 6 -10 -9 -21 -14
-12 -21 -32 -24 -67 -2 -28 -9 -68 -14 -90 -15 -53 -22 -142 -23 -267 -1 -146
8 -231 31 -281 21 -47 36 -97 28 -97 -2 0 -18 7 -33 15 -34 17 -54 19 -54 5 0
-5 6 -10 13 -10 6 0 4 -5 -5 -11 -23 -13 -23 -30 -1 -22 12 5 15 2 11 -8 -4
-9 2 -14 17 -14 14 0 21 5 18 13 -7 17 5 15 25 -5 26 -26 43 -64 37 -85 -4
-10 -1 -18 5 -18 8 0 10 -9 6 -25 -8 -31 11 -34 23 -2 11 30 -2 267 -16 291
-11 17 -12 126 -2 126 6 0 7 5 4 10 -4 6 -1 17 5 25 6 8 9 19 5 24 -4 7 1 8
12 4 16 -6 16 -5 5 9 -11 14 -11 21 4 43 16 24 16 25 -1 18 -15 -5 -14 -2 4
16 13 13 20 29 17 39 -3 9 1 29 8 44 12 23 12 27 0 32 -21 8 -17 23 7 29 26 7
19 32 -8 31 -18 0 -20 3 -11 27 5 16 23 41 39 57 29 28 29 30 10 35 -21 5 -30
27 -11 27 6 0 10 -4 10 -10 0 -5 4 -10 9 -10 5 0 8 8 6 18 -3 18 13 44 24 38
3 -2 6 6 6 19 0 13 -3 21 -7 19 -4 -3 -6 5 -5 16 1 11 9 23 19 26 20 6 24 24
6 24 -7 0 -2 7 10 16 12 8 20 19 17 24 -3 4 2 13 10 20 8 7 15 19 15 27 0 7 7
16 15 19 8 4 13 10 10 14 -3 4 29 42 70 85 62 63 79 75 96 70 18 -6 21 -4 16
9 -4 10 -1 16 9 16 8 0 12 -4 9 -10 -5 -9 32 -16 59 -11 4 1 24 -7 43 -19 19
-11 38 -18 43 -15 4 3 13 -1 19 -9 8 -10 40 -12 123 -11 68 2 118 -2 126 -8 8
-7 16 -7 20 -1 4 5 39 9 77 10 45 0 81 6 103 17 17 10 32 13 32 7 0 -18 18
-11 25 11 6 19 7 20 20 2 13 -17 14 -17 29 2 8 11 16 15 16 8 0 -9 7 -9 31 1
33 14 79 10 79 -7 0 -5 10 -2 21 9 22 19 22 19 9 -5 -7 -14 -8 -21 -1 -17 17
11 71 15 71 6 0 -13 29 -20 36 -8 5 7 2 8 -6 3 -9 -5 -11 -4 -6 4 4 6 13 8 19
4 18 -11 37 -12 37 -2 0 5 5 9 10 9 6 0 9 -5 8 -11 -6 -24 37 -16 110 22 43
22 82 44 89 49 7 6 18 10 25 10 10 0 10 2 0 9 -10 6 -4 10 18 15 18 3 40 6 49
6 14 0 14 -2 1 -11 -12 -9 -12 -10 3 -5 10 3 31 6 45 7 24 0 25 1 7 9 -40 17
-138 10 -197 -14 -32 -13 -58 -22 -58 -21 0 2 15 13 33 24 51 31 124 44 188
32 30 -6 68 -12 84 -16 l30 -5 -27 11 c-17 6 -26 17 -25 29 1 15 5 17 22 8 33
-17 55 -40 48 -51 -3 -6 -1 -7 6 -3 6 4 28 -2 47 -13 43 -25 43 -26 37 -3 -4
19 -180 108 -191 97 -3 -3 0 -5 6 -5 7 0 12 -4 12 -10 0 -6 -9 -6 -26 0 -36
14 -85 12 -114 -5 -14 -8 -32 -14 -40 -14 -8 0 -2 6 14 13 23 11 25 14 11 19
-9 4 -28 7 -41 7 -36 0 -29 17 9 19 108 8 164 4 196 -12 19 -9 40 -17 48 -17
7 0 26 -8 41 -17 27 -17 27 -17 9 3 -9 11 -14 24 -10 28 4 4 1 4 -8 1 -8 -3
-32 6 -53 20 -20 14 -43 25 -51 25 -8 0 -17 5 -20 10 -3 6 -17 10 -31 10 -14
0 -33 4 -43 10 -10 5 -33 12 -52 15 -18 3 -36 9 -39 12 -5 6 59 -3 99 -14 18
-4 22 -3 16 6 -11 19 29 5 87 -31 34 -21 52 -27 63 -20 14 7 13 11 -11 27 -16
10 -34 18 -41 18 -10 0 -10 6 2 23 13 20 13 25 -1 38 -8 9 -13 20 -10 25 5 8
-44 33 -91 46 -13 4 -23 12 -23 20 0 11 -41 45 -54 45 -3 0 -10 -9 -16 -20 -9
-16 -8 -19 7 -14 10 3 2 -4 -17 -15 -41 -24 -77 -27 -77 -7 0 8 6 12 14 9 7
-3 13 1 13 10 0 8 11 18 25 21 14 4 25 11 25 16 0 20 -47 9 -94 -20 -46 -29
-47 -30 -29 -5 10 13 26 25 35 25 9 0 19 4 22 9 8 13 -35 21 -55 10 -24 -12
-39 -11 -16 2 9 5 17 17 17 26 0 13 -3 13 -16 2 -13 -10 -17 -10 -24 1 -6 10
-14 8 -39 -9 -17 -12 -31 -27 -31 -32 0 -12 -27 -12 -35 1 -4 6 11 18 34 27
29 11 41 22 41 36 0 16 -3 17 -15 7 -12 -10 -15 -10 -15 4 0 12 -10 16 -44 16
-25 0 -55 4 -68 9 -38 14 -94 22 -102 14z m284 -143 c0 -5 -5 -10 -11 -10 -5
0 -7 5 -4 10 3 6 8 10 11 10 2 0 4 -4 4 -10z m-253 -6 c-3 -3 -12 -4 -19 -1
-8 3 -5 6 6 6 11 1 17 -2 13 -5z m293 -59 c-14 -8 -36 -14 -49 -15 -22 0 -23
-1 -8 -12 15 -11 12 -13 -21 -13 l-39 -1 33 22 c30 21 57 30 94 32 8 1 4 -5
-10 -13z m-100 -5 c0 -5 -4 -10 -10 -10 -5 0 -10 5 -10 10 0 6 5 10 10 10 6 0
10 -4 10 -10z m-43 -6 c-3 -3 -12 -4 -19 -1 -8 3 -5 6 6 6 11 1 17 -2 13 -5z
m185 -5 c15 -8 19 -8 14 0 -5 7 10 11 48 11 40 0 54 -3 51 -12 -3 -8 -21 -12
-43 -12 -20 1 -43 -3 -49 -8 -7 -6 -13 -7 -13 -3 0 4 -6 2 -14 -4 -12 -10 -13
-8 -9 9 4 16 2 19 -12 13 -13 -4 -16 -3 -11 5 9 15 12 15 38 1z m-172 -29 c0
-5 -5 -10 -11 -10 -5 0 -7 5 -4 10 3 6 8 10 11 10 2 0 4 -4 4 -10z m140 6 c0
-2 -8 -10 -17 -17 -16 -13 -17 -12 -4 4 13 16 21 21 21 13z m-215 -26 c-3 -5
-12 -10 -18 -10 -7 0 -6 4 3 10 19 12 23 12 15 0z m343 3 c-10 -2 -28 -2 -40
0 -13 2 -5 4 17 4 22 1 32 -1 23 -4z m162 -22 c0 -4 -13 -6 -30 -3 -16 2 -30
7 -30 11 0 4 14 6 30 3 17 -2 30 -7 30 -11z m-240 -125 c0 -2 -16 -13 -35 -25
-19 -11 -35 -17 -35 -12 0 5 15 16 33 25 35 17 37 18 37 12z m70 -106 c0 -5
-5 -10 -11 -10 -5 0 -7 5 -4 10 3 6 8 10 11 10 2 0 4 -4 4 -10z m-1642 -685
c-3 -3 -9 2 -12 12 -6 14 -5 15 5 6 7 -7 10 -15 7 -18z m22 -79 c0 -3 -4 -8
-10 -11 -5 -3 -10 -1 -10 4 0 6 5 11 10 11 6 0 10 -2 10 -4z"/>
<path d="M3340 4400 c-9 -6 -10 -10 -3 -10 6 0 15 5 18 10 8 12 4 12 -15 0z"/>
<path d="M3359 4319 c30 -29 46 -40 49 -30 2 7 -2 18 -9 23 -10 7 -5 8 14 3
21 -4 28 -2 25 7 -3 7 -22 16 -44 19 -21 3 -48 10 -59 15 -11 4 0 -12 24 -37z"/>
<path d="M3456 4220 c3 -3 10 -6 15 -6 5 -1 14 -2 19 -3 6 0 9 -6 8 -12 -2 -6
8 -13 21 -14 24 -2 24 -2 -4 21 -16 12 -36 22 -46 21 -10 -1 -16 -4 -13 -7z"/>
<path d="M3316 4142 c-3 -5 1 -13 10 -16 24 -9 44 -7 44 5 0 6 -6 9 -14 6 -7
-3 -18 -1 -24 5 -6 6 -12 6 -16 0z"/>
<path d="M3230 4123 c-34 -6 -148 -42 -187 -59 -28 -13 -53 -34 -39 -34 25 0
105 23 101 30 -3 4 11 11 30 14 19 4 35 11 35 15 0 5 6 9 13 8 41 -1 66 5 71
18 3 8 4 14 3 14 -1 -1 -13 -4 -27 -6z"/>
<path d="M3390 4110 c20 -13 33 -13 25 0 -3 6 -14 10 -23 10 -15 0 -15 -2 -2
-10z"/>
<path d="M3302 4089 c-13 -5 -27 -7 -32 -4 -4 3 -13 -2 -20 -11 -7 -8 -19 -13
-26 -10 -8 3 -11 0 -8 -8 3 -8 31 -18 62 -24 65 -13 94 -13 86 0 -3 4 0 8 5 8
6 0 11 5 11 11 0 5 -8 9 -17 8 -30 -2 -59 2 -45 8 6 2 10 9 6 14 -3 5 0 9 5 9
6 0 11 -4 11 -8 0 -4 10 -8 23 -9 21 -2 21 -1 -3 12 -29 17 -28 17 -58 4z"/>
<path d="M3445 4080 c3 -5 8 -10 11 -10 2 0 4 5 4 10 0 6 -5 10 -11 10 -5 0
-7 -4 -4 -10z"/>
<path d="M3480 4051 c0 -5 5 -13 10 -16 6 -3 10 -2 10 4 0 5 -4 13 -10 16 -5
3 -10 2 -10 -4z"/>
<path d="M3388 4039 c-7 -4 -10 -9 -8 -11 13 -8 90 -46 90 -44 0 1 -15 16 -34
33 -22 19 -39 27 -48 22z"/>
<path d="M3620 3773 c0 -6 8 -17 18 -24 16 -13 16 -13 2 6 -8 11 -16 22 -17
24 -2 2 -3 0 -3 -6z"/>
<path d="M1490 3280 c-8 -5 -12 -12 -9 -15 4 -3 12 1 19 10 14 17 11 19 -10 5z"/>
<path d="M1922 3098 c-5 -5 -20 -9 -35 -10 -26 -2 -39 -18 -15 -18 6 0 3 -7
-8 -15 -19 -14 -43 -21 -31 -8 4 3 -1 11 -10 18 -13 10 -23 9 -50 -7 -18 -11
-33 -24 -33 -28 0 -4 -7 -11 -16 -14 -8 -3 -12 -2 -9 4 13 22 -8 8 -41 -25
-37 -38 -44 -65 -17 -65 15 0 15 -2 -1 -19 -17 -19 -17 -20 6 -23 23 -4 23 -5
-4 -16 -34 -14 -37 -25 -4 -12 19 7 26 5 30 -7 5 -12 10 -13 18 -5 8 8 8 15
-1 26 -11 13 -9 13 13 3 14 -7 21 -13 16 -15 -6 -2 -10 -8 -10 -14 0 -6 7 -7
16 -4 14 6 15 4 4 -10 -10 -11 -11 -17 -2 -23 8 -5 6 -12 -8 -24 -11 -9 -24
-17 -30 -17 -5 0 -12 -5 -15 -10 -4 -6 8 -8 32 -5 26 3 33 2 23 -5 -27 -17 -2
-22 29 -5 18 9 36 13 41 10 6 -3 10 -1 10 4 0 6 11 11 25 11 14 0 25 -5 25
-11 0 -8 4 -8 15 1 8 6 19 9 25 5 6 -4 9 -1 8 7 -2 7 5 12 15 12 17 -2 17 -1
1 17 -20 22 -13 59 16 77 19 11 20 10 20 -21 0 -49 23 -75 75 -83 56 -8 88 11
105 62 13 37 30 35 33 -5 1 -24 2 -24 26 -12 13 7 17 5 17 -10 0 -16 -5 -19
-27 -14 -30 7 -42 -5 -33 -29 7 -18 49 -22 60 -5 3 6 15 9 25 6 11 -3 19 0 19
8 0 7 7 16 16 19 13 5 14 9 4 21 -8 10 -9 15 -2 15 6 0 13 -4 17 -10 3 -5 12
-7 19 -4 21 8 26 -9 10 -31 -8 -10 -14 -16 -14 -12 0 4 -23 -5 -50 -19 -56
-29 -84 -63 -53 -65 11 0 13 -3 5 -6 -6 -2 -10 -9 -6 -14 3 -5 13 -5 25 1 16
9 19 7 19 -15 0 -15 4 -24 10 -20 6 3 10 17 10 30 0 21 17 35 41 35 15 0 10
-22 -8 -37 -16 -13 -16 -13 4 -3 31 15 36 26 17 44 -13 14 -14 16 0 16 8 0 27
11 41 24 20 19 25 32 23 61 -1 20 -6 39 -10 41 -4 3 -8 19 -8 35 0 17 -4 28
-9 25 -5 -3 -11 1 -15 9 -3 8 -1 17 4 20 6 4 10 1 10 -6 0 -7 2 -10 5 -8 10
11 -8 47 -21 42 -8 -3 -14 -1 -14 5 0 6 6 12 13 15 6 2 0 8 -15 12 -16 4 -25
12 -22 20 6 14 -22 28 -37 19 -5 -3 -9 3 -9 14 0 10 -11 24 -25 30 -16 7 -25
8 -25 2 0 -6 -11 -5 -27 3 -34 17 -141 21 -177 7 -19 -7 -26 -6 -26 3 0 13
-56 17 -68 5z m-155 -73 c0 -8 -4 -12 -9 -9 -5 3 -6 10 -3 15 9 13 12 11 12
-6z m263 -145 c-8 -5 -19 -10 -25 -10 -5 0 -3 5 5 10 8 5 20 10 25 10 6 0 3
-5 -5 -10z m80 -10 c0 -5 -4 -10 -10 -10 -5 0 -10 5 -10 10 0 6 5 10 10 10 6
0 10 -4 10 -10z m170 -160 c0 -5 -5 -10 -11 -10 -5 0 -7 5 -4 10 3 6 8 10 11
10 2 0 4 -4 4 -10z"/>
<path d="M1830 3070 c20 -13 33 -13 25 0 -3 6 -14 10 -23 10 -15 0 -15 -2 -2
-10z"/>
<path d="M2893 3043 c-13 -2 -23 -9 -23 -14 0 -5 -8 -9 -18 -9 -26 0 -82 -29
-82 -42 0 -6 9 -8 20 -5 11 3 17 1 14 -4 -3 -6 18 -9 50 -8 68 2 81 -6 32 -20
-20 -5 -49 -20 -65 -33 l-28 -24 24 -22 24 -21 -26 -17 c-31 -21 -31 -28 0
-42 30 -14 65 -16 65 -3 0 4 -10 6 -22 4 -13 -2 -32 3 -43 11 -19 14 -18 15
18 9 35 -5 53 9 25 20 -7 3 -3 6 10 6 12 1 22 7 22 14 0 7 8 17 18 23 15 10
17 7 17 -28 1 -49 22 -69 78 -75 40 -5 49 -2 73 23 19 18 24 29 16 32 -8 2
-10 8 -3 15 5 7 10 21 12 31 4 18 8 17 42 -13 20 -18 37 -38 37 -45 0 -6 16
-16 35 -22 31 -10 34 -9 23 5 -30 40 -83 91 -95 91 -7 0 -13 5 -13 10 0 24 54
-7 110 -64 24 -25 49 -46 54 -46 17 0 -67 80 -111 107 -25 14 -50 22 -61 19
-12 -4 -25 1 -37 14 -10 11 -30 20 -44 20 -14 0 -33 5 -41 11 -13 9 -13 10 0
6 8 -2 22 -1 31 4 9 4 34 9 57 10 22 2 39 6 36 11 -3 4 3 9 13 9 10 1 -10 5
-45 10 -35 4 -80 13 -100 20 -32 10 -34 13 -17 20 14 5 15 8 5 8 -9 1 -21 -4
-28 -11 -9 -9 -12 -9 -12 0 0 12 -7 13 -47 5z m197 -189 c0 -3 -4 -2 -10 1 -5
3 -10 -3 -10 -15 0 -12 -5 -18 -10 -15 -6 4 -8 11 -5 16 4 5 -1 9 -11 9 -13 0
-14 3 -4 15 9 11 17 12 31 4 10 -5 19 -12 19 -15z m-116 -50 c3 -8 2 -12 -4
-9 -6 3 -10 10 -10 16 0 14 7 11 14 -7z m76 -14 c0 -5 -4 -10 -10 -10 -5 0
-10 5 -10 10 0 6 5 10 10 10 6 0 10 -4 10 -10z"/>
<path d="M1252 2878 c-17 -17 -14 -67 7 -115 16 -35 17 -42 5 -47 -15 -6 -20
-46 -5 -46 6 0 8 -10 6 -22 -3 -12 0 -25 5 -28 13 -8 40 -111 40 -151 0 -19 4
-28 11 -23 8 5 8 1 0 -14 -8 -15 -6 -24 8 -41 10 -11 21 -21 25 -21 9 0 4 53
-7 67 -5 7 -11 43 -12 80 -3 44 -1 61 5 48 5 -11 9 -15 10 -10 0 6 3 34 6 64
2 30 7 57 9 59 3 3 0 11 -6 19 -6 7 -7 13 -2 13 4 0 8 25 8 56 -1 51 -4 58
-39 90 -40 36 -55 41 -74 22z m103 -148 c3 -5 1 -10 -4 -10 -6 0 -11 -8 -11
-17 0 -13 -3 -14 -11 -6 -13 13 -5 43 10 43 5 0 13 -4 16 -10z"/>
<path d="M3941 2756 c-8 -13 -11 -30 -8 -38 3 -8 6 -5 6 8 1 11 6 25 13 32 6
6 9 14 7 17 -3 3 -11 -6 -18 -19z"/>
<path d="M2390 2740 c-13 -8 -12 -10 3 -10 9 0 17 5 17 10 0 12 -1 12 -20 0z"/>
<path d="M1455 2700 c3 -5 8 -10 11 -10 2 0 4 5 4 10 0 6 -5 10 -11 10 -5 0
-7 -4 -4 -10z"/>
<path d="M1422 2646 c-20 -22 -27 -38 -21 -47 4 -7 4 -16 -1 -19 -14 -8 -14
-73 0 -102 15 -32 35 -38 25 -9 -3 11 -1 28 4 38 36 63 53 154 32 167 -4 3
-22 -10 -39 -28z"/>
<path d="M1938 2653 c6 -2 18 -2 25 0 6 3 1 5 -13 5 -14 0 -19 -2 -12 -5z"/>
<path d="M2248 2392 c3 -15 1 -23 -5 -19 -6 4 -16 -5 -23 -18 -7 -14 -17 -25
-22 -25 -4 0 -8 -8 -9 -17 0 -15 -2 -15 -9 2 -5 11 -9 14 -10 8 -5 -35 -3 -50
12 -73 22 -33 35 -86 19 -76 -6 4 -11 16 -11 27 0 10 -4 19 -9 19 -4 0 -6 -11
-4 -24 3 -16 -3 -30 -18 -44 -24 -23 -48 -19 -28 4 6 8 7 14 3 14 -5 0 -15 -9
-22 -20 -14 -23 -32 -26 -32 -6 0 8 -6 17 -12 19 -7 3 -1 6 15 6 17 1 27 6 27
17 0 8 5 12 10 9 6 -3 10 -1 10 6 0 6 -8 9 -20 6 -10 -3 -22 0 -25 7 -3 8 -7
8 -11 -2 -3 -6 -10 -10 -15 -6 -5 3 -9 0 -9 -7 0 -13 -46 -59 -60 -59 -5 0 -6
-7 -3 -17 4 -11 3 -14 -5 -9 -7 4 -12 2 -12 -3 0 -6 -9 -11 -20 -11 -11 0 -20
-7 -20 -15 0 -9 -11 -20 -25 -27 -13 -6 -22 -15 -19 -19 3 -5 -2 -9 -11 -9
-12 0 -15 -6 -10 -21 5 -15 4 -19 -4 -15 -6 4 -11 4 -12 -1 -7 -49 -4 -74 7
-84 8 -6 14 -18 14 -26 0 -10 6 -13 16 -9 13 5 15 1 10 -21 -5 -21 -4 -24 4
-13 8 13 10 12 10 -3 0 -10 5 -15 11 -12 6 4 8 14 5 22 -3 8 -1 11 4 8 15 -9
12 -42 -5 -59 -19 -19 -19 -26 1 -26 14 0 14 -2 3 -16 -12 -15 -14 -14 -23 5
-11 26 -26 28 -19 2 3 -10 0 -22 -6 -25 -17 -11 -13 -29 4 -22 9 3 15 0 15 -9
0 -10 -7 -12 -29 -5 -24 7 -29 5 -24 -6 3 -8 0 -14 -7 -14 -6 0 -10 8 -8 18 2
9 10 16 16 14 7 -1 12 2 12 8 0 5 -5 10 -11 10 -6 0 -9 7 -5 15 7 18 -10 20
-18 3 -3 -7 -4 -1 -2 15 4 31 -13 37 -21 7 -5 -17 -7 -18 -17 -6 -9 13 -16 12
-46 -5 -19 -11 -27 -18 -18 -15 11 3 15 1 12 -8 -3 -8 -1 -17 5 -21 12 -7 15
-45 4 -45 -5 0 -16 -14 -25 -31 -17 -29 -17 -30 1 -24 16 5 18 2 14 -14 -3
-12 -9 -18 -14 -15 -5 3 -9 2 -8 -3 4 -22 -3 -33 -21 -33 -11 0 -20 5 -20 12
0 21 -13 -1 -16 -27 -2 -19 2 -25 17 -25 19 0 19 -1 5 -16 -9 -8 -16 -21 -15
-27 0 -8 2 -8 6 1 3 8 13 -2 25 -25 11 -21 25 -41 31 -44 5 -4 7 -16 5 -27 -4
-13 -2 -19 6 -16 7 3 17 -14 24 -44 10 -36 21 -53 42 -66 17 -9 30 -21 30 -27
0 -5 7 -9 15 -9 18 0 19 -12 3 -29 -11 -11 -9 -12 9 -7 12 4 24 2 28 -3 3 -7
0 -8 -9 -5 -21 8 -20 -4 5 -45 16 -27 23 -31 30 -20 6 9 7 3 4 -18 -2 -18 1
-36 7 -39 7 -5 8 -2 3 6 -6 9 -4 11 4 6 7 -5 10 -14 7 -21 -3 -9 5 -15 22 -19
38 -6 62 -4 56 6 -3 4 0 8 7 8 6 0 1 9 -12 21 l-24 20 25 -7 c14 -4 39 -20 55
-36 17 -16 49 -38 73 -49 23 -11 42 -24 42 -30 0 -11 25 -39 35 -39 4 0 13 -7
21 -15 9 -8 25 -15 36 -15 11 0 22 -8 25 -19 5 -19 34 -19 58 0 6 4 17 4 25
-1 8 -5 18 -6 22 -4 4 3 5 -3 1 -12 -4 -11 -8 -13 -11 -6 -2 7 -8 12 -13 12
-4 0 -6 -7 -3 -15 4 -10 0 -15 -12 -15 -14 0 -15 -3 -6 -12 8 -8 15 -8 26 1
11 9 15 9 19 -1 3 -7 6 -3 6 10 1 13 5 20 11 17 6 -3 10 -2 10 3 0 11 30 20
48 15 6 -3 10 -10 6 -16 -3 -7 1 -5 8 4 7 9 29 20 48 24 19 4 38 13 43 19 5 8
10 7 17 -4 8 -12 10 -11 10 8 0 27 8 28 27 4 8 -9 12 -12 9 -6 -3 7 3 14 14
17 13 3 18 10 14 21 -8 21 6 20 22 -1 12 -17 14 -17 30 5 9 13 22 21 30 18 8
-3 14 1 14 9 0 7 10 15 23 17 16 2 21 9 20 26 -2 12 2 22 7 22 6 0 10 -7 10
-16 0 -8 5 -12 10 -9 13 8 13 45 0 65 -8 13 -11 13 -19 1 -7 -11 -11 -10 -20
5 -10 18 -10 18 -11 -3 0 -12 -5 -25 -12 -29 -7 -5 -9 -2 -6 8 4 8 2 21 -4 29
-8 11 -9 10 -4 -4 3 -9 1 -17 -3 -17 -5 0 -11 5 -13 12 -3 7 -7 6 -11 -5 -3
-9 -2 -17 3 -17 6 0 10 -7 10 -15 0 -22 -15 -18 -28 8 l-11 22 -7 -23 c-9 -32
-30 -27 -37 8 -7 34 -30 39 -59 13 -11 -9 -18 -11 -18 -5 0 7 -9 12 -20 12
-14 0 -18 5 -14 18 5 15 4 15 -8 2 -18 -21 -44 -19 -40 3 2 9 -2 17 -8 17 -5
0 -10 -9 -10 -21 0 -11 -5 -17 -10 -14 -7 4 -6 13 1 26 15 28 7 40 -15 24 -10
-8 -22 -29 -26 -47 -7 -30 -8 -31 -9 -6 -1 26 -21 52 -21 28 0 -7 -7 -9 -17
-6 -9 4 -20 1 -24 -6 -11 -17 -21 -5 -13 16 3 9 14 16 23 16 14 1 13 2 -2 11
-10 6 -21 8 -24 5 -4 -3 -13 3 -20 14 -8 11 -22 19 -31 18 -12 -2 -17 4 -16
19 0 12 -6 25 -13 27 -8 3 -11 2 -8 -3 3 -5 1 -12 -5 -16 -5 -3 -10 1 -10 9 0
9 -4 16 -10 16 -5 0 -10 6 -10 14 0 7 -10 17 -22 20 -23 6 -23 6 -3 22 20 16
20 16 -2 9 -19 -5 -23 -2 -23 15 0 16 -4 20 -16 16 -13 -5 -15 -1 -12 17 4 23
-2 26 -59 30 -7 0 -13 7 -13 15 0 9 6 12 16 8 9 -3 12 -2 9 5 -4 5 -16 9 -27
7 -12 -2 -23 3 -26 11 -3 10 0 12 13 7 23 -8 85 14 85 31 0 15 -16 18 -22 4
-1 -4 -14 -11 -28 -15 l-25 -7 23 20 23 20 -22 12 c-17 9 -19 13 -8 20 11 7 9
12 -11 26 -14 10 -29 18 -35 19 -5 0 -17 2 -25 3 -20 2 46 31 72 31 10 0 17 4
14 9 -7 11 -56 11 -56 0 0 -5 -7 -6 -16 -2 -14 5 -12 8 7 19 18 10 20 13 7 14
-9 0 -19 6 -21 13 -4 10 -6 10 -6 0 -1 -7 -11 -13 -23 -13 -22 1 -22 1 -5 14
15 11 16 19 8 34 -6 11 -7 22 -4 26 3 3 1 6 -7 6 -10 0 -10 3 0 15 11 14 7 19
-12 16 -5 0 -8 3 -8 9 0 5 4 10 9 10 17 0 22 34 6 42 -13 8 -13 12 1 33 9 14
23 25 30 25 8 0 14 7 14 15 0 13 4 13 28 -2 38 -24 52 -40 45 -47 -4 -3 1 -6
11 -6 9 0 15 -4 11 -9 -3 -5 4 -12 15 -16 11 -3 20 -15 20 -25 0 -10 6 -18 13
-17 44 1 49 -3 42 -35 l-6 -33 16 28 c17 30 28 36 18 10 -5 -12 -2 -15 10 -10
8 3 17 1 19 -5 3 -7 12 -9 22 -5 11 5 15 13 11 25 -4 16 0 19 22 18 16 -1 37
9 52 24 25 24 25 26 9 42 -14 14 -15 23 -6 50 6 18 12 34 14 36 1 2 23 0 49
-4 34 -5 49 -12 55 -28 l9 -21 6 22 c4 11 16 24 27 26 11 3 17 10 14 16 -4 6
-13 8 -20 5 -8 -3 -20 3 -27 14 -21 29 -125 47 -180 32 -20 -6 -29 -4 -33 6
-3 8 -2 13 3 10 5 -3 11 0 14 7 2 7 17 13 31 15 15 1 25 -2 22 -7 -12 -18 35
2 48 21 10 14 15 16 19 6 4 -10 6 -9 7 2 5 49 24 85 40 75 4 -3 10 6 12 19 5
22 3 24 -21 15 -14 -6 -22 -7 -18 -3 4 4 2 13 -4 21 -14 16 2 18 18 2 8 -8 13
-8 18 0 3 6 -1 14 -9 17 -9 3 -22 20 -31 37 -15 30 -15 30 5 12 23 -21 25 -16
8 20 -12 27 -24 32 -30 13 -3 -8 -9 -8 -24 1 -17 11 -17 12 0 7 14 -5 17 -2
12 10 -3 8 -6 18 -6 20 0 3 -4 2 -10 -1 -5 -3 -10 -1 -10 5 0 6 -4 8 -10 5 -5
-3 -19 -1 -30 5 -16 9 -18 8 -14 -5 4 -8 1 -15 -6 -15 -6 0 -8 -4 -5 -10 3 -5
-2 -10 -12 -11 -10 0 -27 -2 -37 -4 -49 -9 -79 48 -53 99 8 15 18 26 21 24 3
-2 12 9 20 24 12 23 12 27 -3 31 -14 3 -17 -1 -13 -21z m198 -314 c4 -7 4 -10
-1 -6 -4 4 -17 2 -29 -4 -19 -10 -20 -10 -7 5 16 20 27 21 37 5z m-36 -70 c0
-18 -2 -20 -9 -8 -6 8 -7 18 -5 22 9 14 14 9 14 -14z m-57 -162 c3 -17 1 -35
-3 -40 -13 -13 -62 -10 -74 5 -6 8 -21 14 -33 13 -18 -1 -23 4 -23 25 0 25 2
26 64 27 l64 2 5 -32z m-523 -186 c0 -5 -5 -10 -11 -10 -5 0 -7 5 -4 10 3 6 8
10 11 10 2 0 4 -4 4 -10z m-60 -20 c0 -5 -5 -10 -11 -10 -5 0 -7 5 -4 10 3 6
8 10 11 10 2 0 4 -4 4 -10z m-5 -39 c3 -5 2 -12 -3 -15 -5 -3 -9 1 -9 9 0 17
3 19 12 6z m135 -31 c0 -5 -8 -10 -17 -10 -15 0 -16 2 -3 10 19 12 20 12 20 0z
m-90 -45 c-7 -9 -15 -13 -19 -10 -3 3 1 10 9 15 21 14 24 12 10 -5z m193 -10
c-3 -9 -8 -14 -10 -11 -3 3 -2 9 2 15 9 16 15 13 8 -4z m137 -184 c0 -5 -6
-13 -13 -19 -10 -8 -13 -6 -13 9 0 10 6 19 13 19 7 0 13 -4 13 -9z"/>
<path d="M1440 2381 c0 -6 4 -13 10 -16 6 -3 7 1 4 9 -7 18 -14 21 -14 7z"/>
<path d="M2280 2379 c0 -5 5 -7 10 -4 6 3 10 8 10 11 0 2 -4 4 -10 4 -5 0 -10
-5 -10 -11z"/>
<path d="M1498 2270 c-4 -40 5 -53 16 -24 9 23 7 52 -3 58 -5 3 -11 -12 -13
-34z"/>
<path d="M2605 2231 c-3 -6 -3 -11 2 -12 4 0 28 -3 52 -5 33 -4 42 -2 39 8 -6
16 -84 23 -93 9z"/>
<path d="M1510 2200 c-1 -14 -3 -34 -4 -45 -1 -14 -7 -19 -21 -17 -28 4 -37 4
-60 -2 -11 -2 -22 -5 -25 -5 -3 -1 6 -10 20 -21 34 -27 110 -25 110 2 0 5 -4
6 -10 3 -12 -8 -13 8 -1 21 5 5 6 27 1 49 -6 30 -8 34 -10 15z"/>
<path d="M2510 2071 c-7 -13 -16 -18 -27 -14 -10 4 -14 2 -9 -5 3 -6 2 -13 -4
-17 -15 -10 -12 -35 5 -35 8 0 15 -4 15 -8 0 -4 9 -8 19 -8 11 0 18 4 15 7 -2
4 0 10 6 14 5 3 10 -2 10 -11 0 -10 2 -15 5 -13 2 3 2 23 -2 44 -5 32 -8 35
-14 20 -5 -14 -8 -15 -8 -4 -1 8 4 20 10 26 7 7 7 13 0 17 -5 4 -15 -2 -21
-13z m-10 -51 c0 -5 -4 -10 -10 -10 -5 0 -10 5 -10 10 0 6 5 10 10 10 6 0 10
-4 10 -10z"/>
<path d="M2615 1909 c-4 -6 -5 -12 -2 -15 2 -3 7 2 10 11 7 17 1 20 -8 4z"/>
<path d="M2630 1878 c0 -18 20 -47 20 -30 0 7 15 19 33 27 l32 14 -42 1 c-28
0 -43 -4 -43 -12z"/>
<path d="M2748 1870 c33 -11 39 -27 22 -61 -10 -17 -7 -19 20 -20 58 -1 130 0
138 2 4 1 10 1 13 1 3 -1 1 16 -4 37 -10 37 -12 38 -56 38 -25 0 -73 3 -106 6
-49 5 -54 5 -27 -3z"/>
<path d="M2638 1783 c7 -3 16 -2 19 1 4 3 -2 6 -13 5 -11 0 -14 -3 -6 -6z"/>
<path d="M2100 1613 c-13 -15 -12 -16 4 -10 10 4 20 7 22 7 2 0 4 5 4 10 0 15
-13 12 -30 -7z"/>
<path d="M2272 1585 c-14 -17 -37 -21 -27 -5 9 15 -8 12 -33 -6 -19 -13 -26
-12 -24 6 1 11 -57 10 -63 0 -3 -5 0 -10 7 -10 11 0 10 -2 0 -9 -10 -6 -8 -10
9 -14 13 -4 28 -2 32 2 12 12 79 -60 73 -76 -3 -7 -1 -13 5 -13 5 0 12 7 15
15 4 8 10 15 15 15 12 0 7 -50 -6 -51 -5 -1 10 -5 35 -10 37 -7 47 -6 57 8 10
13 15 14 28 3 13 -11 14 -10 9 5 -5 13 -4 16 4 11 7 -4 12 -2 12 3 0 18 18 12
23 -6 2 -10 3 -6 1 8 -2 14 2 31 8 37 8 8 6 16 -7 29 -18 17 -18 17 -13 -4 5
-20 3 -22 -18 -17 -14 4 -31 1 -39 -6 -10 -9 -15 -9 -15 -1 0 6 5 11 10 11 6
0 10 4 10 10 0 5 -7 6 -17 3 -11 -4 -14 -3 -9 5 5 8 1 10 -10 5 -14 -5 -16 -2
-10 23 4 16 3 25 -1 19 -4 -5 -19 -16 -31 -23 -23 -13 -24 -12 -17 17 7 35 6
37 -13 16z m-52 -35 c0 -5 -2 -10 -4 -10 -3 0 -8 5 -11 10 -3 6 -1 10 4 10 6
0 11 -4 11 -10z m56 -34 c16 5 16 4 4 -5 -22 -16 -40 -13 -40 7 0 12 2 14 8 4
5 -7 17 -10 28 -6z m131 -41 c-4 -8 -11 -15 -17 -15 -6 0 -6 7 2 20 14 22 24
19 15 -5z m-44 -1 c-7 -3 -9 -12 -6 -20 4 -10 0 -12 -11 -8 -27 10 -14 32 19
32 6 0 5 -2 -2 -4z"/>
<path d="M2395 1549 c-4 -6 -5 -12 -2 -15 2 -3 7 2 10 11 7 17 1 20 -8 4z"/>
<path d="M2150 1500 c0 -5 -9 -10 -20 -10 -11 0 -20 -5 -20 -11 0 -7 9 -9 23
-5 12 3 25 6 30 6 11 0 8 30 -3 30 -5 0 -10 -4 -10 -10z"/>
<path d="M2180 1499 c0 -5 5 -7 10 -4 6 3 10 8 10 11 0 2 -4 4 -10 4 -5 0 -10
-5 -10 -11z"/>
<path d="M2165 1440 c-3 -5 -1 -10 4 -10 6 0 11 5 11 10 0 6 -2 10 -4 10 -3 0
-8 -4 -11 -10z"/>
<path d="M2235 1440 c-3 -6 1 -7 9 -4 18 7 21 14 7 14 -6 0 -13 -4 -16 -10z"/>
<path d="M2287 1353 c-4 -3 -7 -11 -7 -17 0 -6 5 -5 12 2 6 6 9 14 7 17 -3 3
-9 2 -12 -2z"/>
<path d="M2230 1341 c0 -5 7 -12 16 -15 24 -9 27 -7 10 9 -17 17 -26 19 -26 6z"/>
<path d="M2313 1215 c-3 -9 -3 -18 -1 -21 3 -3 8 4 11 16 6 23 -1 27 -10 5z"/>
<path d="M1815 1190 c3 -5 8 -10 11 -10 2 0 4 5 4 10 0 6 -5 10 -11 10 -5 0
-7 -4 -4 -10z"/>
<path d="M1840 1144 c0 -5 7 -18 15 -28 8 -11 15 -16 15 -10 0 5 -7 18 -15 28
-8 11 -15 16 -15 10z"/>
<path d="M2516 1137 c3 -10 9 -15 12 -12 3 3 0 11 -7 18 -10 9 -11 8 -5 -6z"/>
<path d="M2866 1131 c-4 -5 -2 -12 3 -15 5 -4 12 -2 15 3 4 5 2 12 -3 15 -5 4
-12 2 -15 -3z"/>
<path d="M2915 1120 c4 -14 11 -29 15 -34 10 -10 30 1 30 16 0 6 -3 8 -6 5 -4
-4 -16 3 -27 16 l-19 22 7 -25z"/>
<path d="M2877 1093 c-11 -3 -16 -10 -13 -20 3 -8 6 -19 6 -24 0 -20 18 1 22
26 3 14 5 24 4 24 0 -1 -9 -3 -19 -6z"/>
<path d="M1875 1020 c3 -5 10 -10 16 -10 5 0 9 5 9 10 0 6 -7 10 -16 10 -8 0
-12 -4 -9 -10z"/>
<path d="M1413 995 c-18 -8 -51 -28 -72 -46 -29 -23 -52 -32 -85 -34 -59 -4
-129 -31 -301 -115 -77 -37 -160 -75 -185 -83 -165 -56 -400 -161 -400 -179 0
-12 -91 -55 -130 -62 -20 -3 0 8 45 26 44 17 75 33 69 35 -17 6 -149 -55 -146
-67 1 -6 -10 -15 -25 -21 -16 -6 -28 -10 -28 -9 0 1 -13 -3 -28 -9 -18 -7 -26
-7 -22 -1 8 13 2 13 -29 -1 -14 -7 -23 -16 -20 -20 2 -4 -9 -15 -26 -24 -32
-17 -41 -31 -12 -21 16 6 16 5 -1 -8 -15 -12 -17 -33 -17 -185 l0 -171 1357 0
c970 0 1360 4 1370 11 8 7 13 8 13 1 0 -6 25 -10 58 -10 31 1 49 3 39 5 -12 3
-16 12 -13 30 4 19 1 23 -10 19 -7 -3 -14 -1 -14 4 0 6 -9 10 -21 10 -11 0
-17 -5 -14 -10 3 -6 2 -10 -2 -10 -14 0 -33 38 -27 55 3 8 10 13 15 10 4 -3 6
-11 3 -19 -3 -9 3 -11 26 -8 30 4 40 17 18 24 -6 2 -8 10 -4 16 10 16 26 15
26 -2 0 -8 6 -17 13 -19 10 -4 10 -6 0 -6 -7 -1 -13 -6 -13 -11 0 -6 7 -6 19
1 10 7 16 20 14 29 -2 9 3 22 11 29 9 8 16 9 16 5 0 -5 10 -15 23 -23 20 -13
21 -13 8 2 -12 15 -10 18 18 23 29 6 31 8 19 28 -8 13 -14 57 -15 111 l-1 90
7 -77 c4 -43 10 -80 13 -83 3 -3 17 -3 32 1 20 5 24 10 17 23 -4 9 -8 45 -9
81 l0 65 8 -63 c12 -83 18 -102 37 -102 12 0 13 3 4 14 -7 8 -14 41 -16 73
l-4 58 10 -54 c12 -67 24 -84 50 -70 15 8 17 14 9 29 -5 10 -9 43 -8 72 1 36
2 42 5 18 4 -49 24 -110 35 -110 5 0 6 10 2 23 -24 73 -30 127 -14 127 6 0 10
-15 10 -32 0 -45 19 -108 32 -108 6 0 7 7 3 18 -15 36 -25 89 -25 138 0 27 -6
59 -14 69 -13 18 -14 14 -10 -30 l3 -50 -10 43 c-12 49 -31 57 -24 10 4 -27 3
-28 -3 -8 -7 23 -14 26 -41 22 -4 -1 -7 -26 -5 -54 1 -29 1 -42 -2 -28 -11 58
-15 70 -24 70 -5 0 -7 -17 -4 -37 l4 -38 -13 40 c-8 25 -15 35 -20 28 -4 -7
-15 -9 -24 -6 -12 5 -15 2 -10 -10 3 -9 2 -17 -3 -17 -6 0 -10 5 -10 10 0 6
-4 10 -10 10 -5 0 -10 -8 -10 -17 0 -13 -3 -15 -8 -5 -11 16 -51 10 -63 -9 -6
-10 -9 -10 -9 -1 0 22 -20 13 -21 -10 l0 -23 -10 24 c-6 16 -13 20 -22 14 -6
-5 -25 -8 -40 -7 -21 2 -30 -3 -37 -19 -7 -17 -9 -18 -9 -4 -1 18 -21 25 -21
7 0 -5 -5 -10 -11 -10 -5 0 -7 4 -4 10 3 5 1 10 -5 10 -6 0 -13 -7 -17 -16 -5
-13 -7 -13 -14 -2 -7 11 -11 10 -19 -2 -7 -11 -10 -11 -10 -2 0 16 -90 7 -101
-9 -5 -8 -8 -7 -11 1 -3 9 -41 14 -123 16 -127 5 -232 16 -311 34 -76 18 -204
63 -204 71 0 5 -7 6 -15 3 -9 -4 -18 1 -21 10 -8 20 -58 48 -69 38 -5 -4 -6 0
-2 9 4 12 1 16 -11 13 -10 -3 -33 11 -55 31 -21 19 -42 35 -48 35 -5 0 -9 5
-9 10 0 6 -6 10 -13 10 -7 0 -23 14 -37 31 -14 18 -33 39 -43 48 -25 22 -72
118 -81 164 -6 34 -4 40 31 72 37 34 37 35 13 35 -14 -1 -40 -7 -57 -15z
m-217 -110 c-11 -8 -25 -15 -32 -15 -7 0 -15 -6 -17 -12 -4 -10 -6 -10 -6 -1
-1 7 14 19 32 27 42 19 46 19 23 1z m-389 -191 c-3 -3 -12 -4 -19 -1 -8 3 -5
6 6 6 11 1 17 -2 13 -5z m-222 -74 c-3 -5 -12 -10 -18 -10 -7 0 -6 4 3 10 19
12 23 12 15 0z m-75 -35 c-7 -9 -15 -13 -17 -11 -7 7 7 26 19 26 6 0 6 -6 -2
-15z m-69 -32 c-17 -3 -20 -7 -12 -13 9 -5 4 -7 -13 -7 -27 0 -35 12 -13 20 6
3 23 5 37 5 l25 -1 -24 -4z m2526 -165 c-2 -13 -4 -5 -4 17 -1 22 1 32 4 23 2
-10 2 -28 0 -40z m108 -113 c7 -16 6 -18 -6 -7 -8 7 -14 38 -15 80 l-3 67 8
-60 c5 -33 12 -69 16 -80z m-97 -25 c0 -23 -1 -22 -8 5 -4 17 -8 48 -8 70 l1
40 8 -45 c4 -25 7 -56 7 -70z m-141 58 c-3 -8 -6 -5 -6 6 -1 11 2 17 5 13 3
-3 4 -12 1 -19z m30 -20 c-3 -8 -6 -5 -6 6 -1 11 2 17 5 13 3 -3 4 -12 1 -19z
m-70 -20 c-3 -8 -6 -5 -6 6 -1 11 2 17 5 13 3 -3 4 -12 1 -19z m45 -8 c3 -16
1 -30 -4 -30 -4 0 -8 14 -8 30 0 17 2 30 4 30 2 0 6 -13 8 -30z m65 -27 c-3
-10 -5 -4 -5 12 0 17 2 24 5 18 2 -7 2 -21 0 -30z m-2 -27 c10 4 15 0 15 -10
0 -13 -6 -15 -26 -10 -19 5 -25 4 -20 -5 9 -15 -7 -14 -22 1 -9 9 -13 8 -17
-3 -7 -18 -67 -17 -73 1 -3 8 1 11 10 7 26 -9 98 14 98 32 1 14 2 14 11 -1 5
-10 16 -15 24 -12z m-205 -40 c0 -3 -4 -8 -10 -11 -5 -3 -10 -1 -10 4 0 6 5
11 10 11 6 0 10 -2 10 -4z m-230 -26 c0 -5 -2 -10 -4 -10 -3 0 -8 5 -11 10 -3
6 -1 10 4 10 6 0 11 -4 11 -10z m204 -55 c-6 -16 -24 -21 -24 -7 0 11 11 22
21 22 5 0 6 -7 3 -15z m127 -52 c12 -16 12 -17 -2 -6 -9 7 -20 9 -24 5 -5 -4
-5 -1 -1 6 9 16 11 15 27 -5z"/>
<path d="M3391 924 c33 -35 33 -114 0 -167 -12 -20 -19 -37 -15 -37 4 0 1 -6
-8 -12 -41 -34 -88 -97 -77 -104 7 -4 10 -3 7 2 -8 12 17 35 28 26 4 -4 4 -1
0 6 -4 6 -3 12 1 12 5 0 15 -6 23 -12 12 -11 12 -10 1 4 -7 9 -10 22 -6 28 9
14 27 2 19 -13 -5 -9 -3 -9 6 0 11 10 11 15 -1 29 -12 16 -12 17 4 11 11 -4
16 -3 12 3 -3 6 -1 10 6 10 7 0 10 3 6 6 -3 4 1 21 10 38 10 17 16 34 15 39
-1 4 2 7 6 7 7 0 8 29 4 88 -2 24 -35 62 -54 62 -6 0 -1 -12 13 -26z"/>
<path d="M1990 859 c0 -5 5 -7 10 -4 6 3 10 8 10 11 0 2 -4 4 -10 4 -5 0 -10
-5 -10 -11z"/>
<path d="M2205 801 c-3 -5 -1 -12 5 -16 5 -3 10 1 10 9 0 18 -6 21 -15 7z"/>
<path d="M2230 792 c0 -14 11 -21 26 -15 21 8 17 23 -6 23 -11 0 -20 -4 -20
-8z"/>
<path d="M3611 728 c-1 -10 -6 -18 -12 -18 -5 0 -7 -4 -4 -10 8 -13 -1 -13
-27 1 -15 8 -19 8 -14 0 4 -6 1 -11 -6 -11 -7 0 -2 -9 12 -20 31 -24 14 -27
-20 -3 l-25 16 24 -26 c14 -15 28 -27 32 -27 11 0 50 91 45 104 -2 6 -5 3 -5
-6z m-26 -48 c3 -5 2 -10 -4 -10 -5 0 -13 5 -16 10 -3 6 -2 10 4 10 5 0 13 -4
16 -10z"/>
<path d="M3788 701 c7 -4 14 -14 16 -22 4 -26 30 -89 36 -89 4 0 7 -6 8 -12 0
-7 3 -24 6 -36 4 -18 2 -22 -9 -18 -9 3 -15 -1 -15 -9 0 -8 4 -15 9 -15 11 0
9 -19 -3 -40 -7 -12 -6 -13 5 -2 20 18 31 14 24 -9 -13 -42 -13 -69 2 -69 8 0
11 -5 8 -10 -4 -6 -1 -17 5 -25 6 -8 8 -20 4 -26 -5 -8 -3 -9 6 -4 10 6 12 4
7 -8 -4 -10 3 -27 18 -43 19 -20 22 -31 15 -44 -7 -13 -6 -23 3 -32 8 -7 12
-19 9 -26 -2 -6 5 -12 15 -12 15 0 16 -2 3 -10 -13 -8 -13 -11 -1 -19 7 -5 11
-13 7 -19 -7 -12 10 -63 21 -61 21 4 31 -3 29 -18 -1 -16 12 -18 134 -21 74
-1 130 1 124 5 -6 5 -16 29 -24 56 -7 26 -17 47 -21 47 -5 0 -9 7 -9 15 0 8
-5 15 -11 15 -5 0 -7 5 -4 10 3 5 1 10 -5 10 -6 0 -9 4 -6 9 4 5 -5 23 -19 40
-15 16 -25 31 -23 33 5 6 -27 45 -47 56 -11 6 -14 12 -8 12 15 0 -1 49 -21 65
-16 12 -41 57 -38 68 1 4 -3 7 -9 7 -5 0 -7 5 -4 10 3 6 -1 10 -9 10 -9 0 -16
7 -16 16 0 9 -5 12 -12 8 -7 -4 -8 -3 -4 4 7 11 1 22 -36 63 -10 10 -16 19
-13 19 3 0 0 6 -7 14 -7 8 -17 11 -22 8 -5 -3 -6 3 -3 12 5 13 3 17 -7 13 -10
-4 -13 -1 -9 9 3 7 1 14 -3 14 -5 0 -23 14 -41 30 -18 17 -40 30 -50 30 -13 0
-15 -2 -5 -9z"/>
<path d="M3497 653 c-13 -12 -7 -21 24 -44 25 -18 33 -19 40 -8 6 10 0 21 -19
36 -29 24 -35 26 -45 16z m49 -40 c-7 -7 -46 16 -46 28 0 5 11 2 25 -7 14 -9
24 -19 21 -21z"/>
<path d="M3499 597 c30 -33 17 -36 -17 -4 l-25 22 12 -22 c6 -12 19 -26 29
-32 9 -5 13 -13 9 -18 -5 -4 -20 5 -33 21 -14 15 -27 26 -29 24 -3 -2 10 -19
28 -36 l33 -32 17 28 c16 29 16 29 -16 52 l-32 23 24 -26z"/>
<path d="M3243 591 c-19 -16 -20 -20 -7 -25 8 -3 13 -2 11 2 -7 10 19 32 29
24 4 -4 4 -1 0 6 -9 15 -6 15 -33 -7z"/>
<path d="M3435 560 c4 -8 17 -25 29 -38 17 -19 17 -22 3 -16 -10 3 -17 1 -17
-6 0 -6 -5 -8 -12 -4 -8 5 -9 2 -5 -9 10 -26 -9 -20 -32 9 -12 15 -21 22 -21
15 0 -6 9 -20 21 -32 24 -24 18 -38 -8 -18 -16 13 -17 12 -4 -4 8 -9 11 -20 9
-23 -9 -8 -48 47 -48 68 0 11 -4 16 -10 13 -12 -8 17 -68 40 -83 16 -9 23 -6
49 23 17 19 35 35 40 35 25 0 20 24 -10 53 -18 18 -29 25 -24 17z"/>
<path d="M3190 558 c0 -3 7 -21 15 -39 10 -24 14 -28 14 -14 0 11 -6 29 -14
39 -8 11 -15 17 -15 14z"/>
<path d="M3210 556 c0 -2 8 -10 18 -17 15 -13 16 -12 3 4 -13 16 -21 21 -21
13z"/>
<path d="M3270 540 c0 -11 4 -20 9 -20 5 0 7 9 4 20 -3 11 -7 20 -9 20 -2 0
-4 -9 -4 -20z"/>
<path d="M3350 549 c0 -5 5 -7 10 -4 6 3 10 8 10 11 0 2 -4 4 -10 4 -5 0 -10
-5 -10 -11z"/>
<path d="M3422 535 c6 -14 15 -25 20 -25 5 0 1 11 -8 25 -9 14 -18 25 -20 25
-2 0 2 -11 8 -25z"/>
<path d="M3174 526 c4 -11 11 -53 17 -95 6 -41 15 -83 20 -93 6 -12 6 -18 0
-18 -10 0 -19 22 -27 67 -3 15 -8 30 -11 33 -7 6 3 -78 13 -105 5 -15 4 -17
-5 -9 -13 12 -16 26 -26 119 -3 33 -9 68 -12 79 -3 12 -1 16 6 12 6 -4 11 -19
11 -34 0 -15 5 -34 10 -42 9 -13 10 -13 10 0 0 8 -5 32 -11 53 -7 28 -15 37
-26 33 -8 -3 -16 -6 -19 -6 -2 0 1 -12 6 -26 6 -14 10 -43 10 -65 0 -45 18
-127 30 -134 8 -5 70 14 70 21 0 3 -7 16 -16 29 -8 13 -19 58 -23 99 -4 42
-13 82 -20 88 -12 11 -13 10 -7 -6z"/>
<path d="M3406 517 c3 -10 9 -15 12 -12 3 3 0 11 -7 18 -10 9 -11 8 -5 -6z"/>
<path d="M3235 493 c5 -34 -10 -56 -18 -26 -3 11 -5 8 -6 -9 -1 -20 3 -26 13
-22 21 8 26 28 15 61 -9 28 -9 28 -4 -4z"/>
<path d="M3270 480 c-8 -5 -12 -12 -9 -15 4 -3 12 1 19 10 14 17 11 19 -10 5z"/>
<path d="M3320 474 c0 -12 44 -74 53 -74 14 0 7 15 -13 28 -11 7 -20 19 -20
26 0 8 -4 18 -10 21 -5 3 -10 3 -10 -1z"/>
<path d="M3326 413 c10 -18 22 -33 26 -33 15 0 8 17 -19 41 l-26 24 19 -32z"/>
<path d="M3240 422 c0 -21 31 -82 42 -82 7 0 6 5 0 13 -7 7 -18 29 -26 48 -9
19 -15 28 -16 21z"/>
<path d="M3293 418 c4 -10 10 -26 14 -35 6 -16 5 -17 -12 -3 -17 14 -18 14 -6
-8 11 -20 14 -21 27 -7 14 13 13 18 -7 43 -12 15 -19 19 -16 10z"/>
<path d="M3231 363 c6 -18 15 -33 20 -33 14 0 10 13 -11 40 l-20 25 11 -32z"/>
<path d="M3392 274 c-7 -8 -8 -14 -3 -14 10 0 25 19 20 25 -2 1 -10 -3 -17
-11z"/>
<path d="M4306 281 c-8 -12 4 -41 16 -41 5 0 6 -4 3 -10 -3 -5 1 -10 10 -10
15 0 15 -1 1 -16 -18 -18 -22 -39 -4 -28 8 5 9 0 6 -14 -4 -15 -2 -22 8 -22
10 0 13 -7 8 -25 -4 -15 -2 -25 5 -25 6 0 10 -3 9 -7 -1 -5 4 -21 10 -36 7
-16 12 -33 12 -38 0 -5 32 -9 70 -9 39 0 70 3 70 6 0 12 -24 50 -38 60 -8 6
-12 16 -8 23 4 6 0 14 -11 18 -25 9 -34 26 -20 35 8 5 6 8 -5 8 -16 0 -23 12
-15 24 1 3 -9 16 -22 30 -15 16 -19 26 -11 26 7 0 0 11 -16 25 -15 13 -30 22
-32 20 -3 -2 -13 0 -23 5 -10 6 -20 6 -23 1z m89 -91 c3 -5 2 -10 -4 -10 -5 0
-13 5 -16 10 -3 6 -2 10 4 10 5 0 13 -4 16 -10z"/>
<path d="M3420 261 c0 -25 6 -27 13 -6 4 8 2 17 -3 20 -6 4 -10 -3 -10 -14z"/>
<path d="M3375 240 c-17 -7 -17 -9 -2 -9 9 -1 17 -5 17 -11 0 -5 -8 -10 -17
-10 -16 -1 -15 -3 4 -19 12 -10 19 -21 16 -25 -4 -3 -2 -6 4 -6 6 0 13 9 16
19 3 15 1 18 -12 14 -14 -4 -14 -3 2 10 9 8 17 17 17 21 0 3 -8 6 -17 6 -15 0
-16 2 -3 10 18 12 2 12 -25 0z"/>
<path d="M3081 214 c0 -11 3 -14 6 -6 3 7 2 16 -1 19 -3 4 -6 -2 -5 -13z"/>
<path d="M2966 177 c3 -10 9 -15 12 -12 3 3 0 11 -7 18 -10 9 -11 8 -5 -6z"/>
<path d="M3165 180 c-3 -5 -1 -10 4 -10 6 0 11 5 11 10 0 6 -2 10 -4 10 -3 0
-8 -4 -11 -10z"/>
<path d="M3163 145 c-13 -5 -23 -16 -23 -24 0 -9 -7 -11 -21 -8 -15 4 -18 2
-10 -7 6 -7 8 -16 4 -19 -3 -4 -1 -7 7 -7 10 0 10 -3 0 -15 -7 -9 -10 -18 -6
-22 8 -9 27 10 30 30 3 26 36 56 54 50 11 -3 13 -2 6 4 -6 4 -13 13 -15 18 -3
7 -11 7 -26 0z"/>
<path d="M2980 123 c0 -14 -2 -15 -9 -5 -7 11 -10 10 -15 -3 -7 -20 0 -35 17
-34 9 0 9 2 0 6 -20 8 -15 22 6 16 24 -6 33 8 15 25 -12 11 -14 10 -14 -5z"/>
<path d="M2890 104 c0 -3 7 -12 15 -20 16 -17 18 -14 9 10 -6 15 -24 23 -24
10z"/>
<path d="M3720 105 c0 -3 4 -13 9 -23 5 -9 12 -25 15 -34 3 -10 13 -18 23 -18
17 1 17 1 1 14 -10 7 -18 21 -18 30 0 9 -5 16 -11 16 -5 0 -7 5 -4 10 3 6 1
10 -4 10 -6 0 -11 -2 -11 -5z"/>
<path d="M2840 29 c0 -5 5 -7 10 -4 6 3 10 8 10 11 0 2 -4 4 -10 4 -5 0 -10
-5 -10 -11z"/>
<path d="M3055 31 l-30 -6 32 -14 c40 -16 59 -12 41 10 -9 11 -22 14 -43 10z"/>
<path d="M2916 21 c-4 -7 -5 -15 -2 -18 9 -9 19 4 14 18 -4 11 -6 11 -12 0z"/>
<path d="M2870 10 c0 -5 4 -10 9 -10 6 0 13 5 16 10 3 6 -1 10 -9 10 -9 0 -16
-4 -16 -10z"/>
<path d="M3735 10 c-4 -6 9 -10 29 -10 20 0 36 3 36 8 0 11 -58 13 -65 2z"/>
</g>
</svg>
